<?xml version="1.0" encoding="UTF-8"?>
<svg xmlns="http://www.w3.org/2000/svg" viewBox="0 0 158.13 217.61">
  <defs>
    <style>
      .cls-1, .cls-2, .cls-3, .cls-4, .cls-5, .cls-6, .cls-7, .cls-8, .cls-9, .cls-10, .cls-11, .cls-12, .cls-13, .cls-14, .cls-15, .cls-16, .cls-17, .cls-18 {
        stroke-width: 0px;
      }

      .cls-1, .cls-14 {
        fill: #00adee;
      }

      .cls-2 {
        fill: #0071bc;
      }

      .cls-3, .cls-13 {
        fill: #c87a37;
      }

      .cls-4 {
        fill: #0a5077;
      }

      .cls-5 {
        fill: #d41834;
      }

      .cls-6 {
        fill: #15824b;
      }

      .cls-7 {
        fill: #37b34a;
      }

      .cls-8 {
        fill: #be5e66;
      }

      .cls-8, .cls-19, .cls-13, .cls-14, .cls-16 {
        opacity: .5;
      }

      .cls-8, .cls-19, .cls-13, .cls-16 {
        mix-blend-mode: multiply;
      }

      .cls-9 {
        fill: #fcee21;
      }

      .cls-20 {
        isolation: isolate;
      }

      .cls-10 {
        fill: #faa;
      }

      .cls-11 {
        fill: #fff;
      }

      .cls-12 {
        fill: #034424;
      }

      .cls-14 {
        mix-blend-mode: screen;
      }

      .cls-15 {
        fill: #006837;
      }

      .cls-16, .cls-18 {
        fill: #43270f;
      }

      .cls-17 {
        fill: #601a13;
      }
    </style>
  </defs>
  <g class="cls-20">
    <g id="Capa_2" data-name="Capa 2">
      <g id="OBJECTS">
        <g>
          <path class="cls-1" d="m158.13.01v166.97H0V0h158.12s.01,0,.01.01Z"/>
          <path class="cls-14" d="m158.13,51.23v94.05H25.37l.68-25.01c1.94-8.8,7.87-16.46,15.43-21.39,7.55-4.93,16.6-7.26,25.61-7.64,5.26-.22,10.59.19,15.77-.81,13.8-2.67,23.56-14.52,34.73-23.05,11.7-8.94,25.9-14.53,40.54-16.15Z"/>
          <path class="cls-14" d="m153.81,108.69c-7.32.03-14.26,3.27-20.5,7.13-6.23,3.85-12.06,8.41-18.67,11.56-14.96,7.14-33.05,6.32-48.2-.41-11.24-4.99-21.78-13.21-34.08-13.15-4.82.02-9.97,1.29-14.26-.9-4.67-2.39-6.65-8.03-10.65-11.41-2.09-1.76-4.73-2.82-7.45-3.09v-30.54c8.53-1.84,17.98.43,24.44,6.35,3.88,3.57,6.82,8.33,11.52,10.73,4.02,2.07,8.83,2.07,13.26,1.16s8.64-2.67,12.95-4.04c8.9-2.81,18.91-3.83,27.31.2,5.48,2.63,9.79,7.15,14.93,10.38,4.52,2.83,9.69,4.64,14.99,5.23,6.4.72,12.9-.29,19.29.53,6.38.82,13.13,4.15,15.12,10.27Z"/>
          <path class="cls-12" d="m87.24,153.54H0v-71.17c3.58,1.26,6.94,3.16,9.85,5.6,4.54,3.81,7.97,8.82,12.62,12.5,10.52,8.32,25.22,8.39,37.61,13.54,15.68,6.52,27.48,22.55,27.16,39.53Z"/>
          <path class="cls-15" d="m158.13,101.82v52.16H15.89c3.28-5.17,7.01-10.08,11.66-14.04,5.42-4.6,12.21-7.86,19.31-8.02,7.56-.18,15.13,3.1,22.53,1.53,3.72-.8,7.07-2.76,10.34-4.7,4.75-2.81,9.49-5.63,14.24-8.44,8.77-5.19,17.6-10.41,27.19-13.87,11.78-4.25,24.47-5.68,36.97-4.62Z"/>
          <rect class="cls-7" y="150.56" width="158.13" height="16.42"/>
          <path class="cls-9" d="m111.38,54.76c0,3.84-3.11,6.95-6.95,6.95s-6.95-3.11-6.95-6.95,3.11-6.95,6.95-6.95,6.95,3.11,6.95,6.95Z"/>
          <path class="cls-6" d="m158.13,141.25v14.07H0v-10.41c2.5-.99,5.75-.93,7.97.44,1.19-2.03,4.02-3.41,6.89-3.38,2.88.04,5.64,1.49,6.74,3.55,2.75-2.76,8.8-3,11.89-.45,1.59-2.46,4.57-4.45,8.08-4.92,3.5-.46,7.41.79,9.05,3.24,3.11-2.49,9.36-1.66,11.23,1.49,1.61-1.52,4.32-2.29,6.82-1.96,2.51.33,4.72,1.77,5.58,3.62,2.14-3.54,8.86-4.77,12.8-2.34,1.07-1.97,3.72-3.34,6.48-3.38,2.75-.02,5.44,1.3,6.57,3.24,2.84-3.48,10.53-3.48,13.37-.02,3.78-3,11.13-2.44,14.07,1.08,1.5-1.62,4.16-2.55,6.72-2.36,2.57.19,4.94,1.49,6.02,3.31,2.97-2.62,8.26-3.47,12.32-1.97,1.23-1.49,3.3-2.52,5.53-2.87Z"/>
          <g>
            <g>
              <polygon class="cls-11" points="52.49 194.28 51.92 202.18 60.98 202.84 61.73 194.71 52.49 194.28"/>
              <path class="cls-3" d="m50.81,200.99s.41-2.18,1.67-3.07c1.26-.9,5.43-1.37,5.84,4.07l-1.02.52-6.49-1.51Z"/>
              <path class="cls-18" d="m57.05,200.12c-.43-.23-.92-.35-1.41-.43-1.54-.24-3.77-.23-5.1.7-1.12.78-1.61,2.14-2.26,3.28-.72,1.28-1.51,2.5-2.44,3.61-1.07,1.25-2.28,2.59-2.38,4.29-.03.45.04.93.33,1.26.27.31.68.42,1.06.51,4.63,1.08,9.5.95,14.08-.36,1.04-.3,2.12-.7,2.8-1.6.7-.93.83-2.2.93-3.4.15-1.82.27-3.41-.33-5.16-.09-.26-.2-.54-.41-.7-.29-.22-.67-.18-1.03-.19-.92-.02-2.1-.39-2.8-.99-.23-.19-.43-.42-.67-.6-.11-.09-.24-.16-.36-.23Z"/>
              <path class="cls-3" d="m45.67,210.82c.92-.06,1.86.09,2.72.44,1.43.58,2.66,1.68,4.13,2.16,2.47.8,5.08-.32,7.45-1.43.81-.38,1.69-.83,2.07-1.69.61-1.38,1.08.47,1.09,1.2,0,.31,0,.64-.13.92-.05.11-.13.2-.2.3-1.92,2.49-5.26,3.84-8.11,4.51-.97.23-1.91.36-2.9.39-2.61.08-5.29-.39-7.58-1.81-.71-.44-1.42-1.04-1.61-1.9-.18-.84.21-1.73.83-2.27.62-.54,1.44-.76,2.23-.81Z"/>
            </g>
            <g>
              <polygon class="cls-11" points="99.66 194.28 100.23 202.18 91.17 202.84 90.42 194.71 99.66 194.28"/>
              <path class="cls-3" d="m101.34,200.99s-.41-2.18-1.67-3.07c-1.26-.9-5.43-1.37-5.84,4.07l1.02.52,6.49-1.51Z"/>
              <path class="cls-18" d="m95.1,200.12c.43-.23.92-.35,1.41-.43,1.54-.24,3.77-.23,5.1.7,1.12.78,1.61,2.14,2.26,3.28.72,1.28,1.51,2.5,2.44,3.61,1.07,1.25,2.28,2.59,2.38,4.29.03.45-.04.93-.33,1.26-.27.31-.68.42-1.06.51-4.63,1.08-9.5.95-14.08-.36-1.04-.3-2.12-.7-2.8-1.6-.7-.93-.83-2.2-.93-3.4-.15-1.82-.27-3.41.33-5.16.09-.26.2-.54.41-.7.29-.22.67-.18,1.03-.19.92-.02,2.1-.39,2.8-.99.23-.19.43-.42.67-.6.11-.09.24-.16.36-.23Z"/>
              <path class="cls-3" d="m106.47,210.82c-.92-.06-1.86.09-2.72.44-1.43.58-2.66,1.68-4.13,2.16-2.47.8-5.08-.32-7.45-1.43-.81-.38-1.69-.83-2.07-1.69-.61-1.38-1.08.47-1.09,1.2,0,.31,0,.64.13.92.05.11.13.2.2.3,1.92,2.49,5.26,3.84,8.11,4.51.97.23,1.91.36,2.9.39,2.61.08,5.29-.39,7.58-1.81.71-.44,1.42-1.04,1.61-1.9.18-.84-.21-1.73-.83-2.27-.62-.54-1.44-.76-2.23-.81Z"/>
            </g>
            <g>
              <path class="cls-17" d="m68.58,93.67c.17.14.43.12.59.27.29.28-.03.88.29,1.12.18.14.44.06.65.13.11.04.21.11.31.18.5.33,1.17.39,1.72.15.1-.28-.07-.59-.28-.8-.21-.21-.47-.38-.64-.63-.54-.83.26-2.02-.19-2.9-.08-.17-.21-.31-.29-.48-.08-.17-.12-.38-.02-.54-.63-.12-1.27-.18-1.91-.2-.07,0-.14,0-.19.03-.06.03-.09.09-.13.15-.25.46-.46,1.01-.25,1.49.1.23.29.41.33.66.04.23-.06.47-.12.7-.06.23-.06.51.12.67Z"/>
              <path class="cls-17" d="m84.2,93.67c-.17.14-.43.12-.59.27-.29.28.03.88-.29,1.12-.18.14-.44.06-.65.13-.11.04-.21.11-.31.18-.5.33-1.17.39-1.72.15-.1-.28.07-.59.28-.8.21-.21.47-.38.64-.63.54-.83-.26-2.02.19-2.9.08-.17.21-.31.29-.48.08-.17.12-.38.02-.54.63-.12,1.27-.18,1.91-.2.07,0,.14,0,.19.03.06.03.09.09.13.15.25.46.46,1.01.25,1.49-.1.23-.29.41-.33.66-.04.23.06.47.12.7.06.23.06.51-.12.67Z"/>
            </g>
            <path class="cls-10" d="m54.09,109.35c-.48.32-.93.7-1.35,1.09-5.43,5.02-6.91,12.89-7.89,19.92-.25,1.82-.96,5.44.4,7,1.47,1.68,4.37.66,5.74-.56,3.53-3.14,4.47-7.45,6.22-11.58,1.51-3.59,2.66-7.34,3.29-11.19.16-1,.29-2.01.39-3.02.11-1.18.19-1.12-.77-1.61-1.22-.63-2.68-1.25-4.07-.93-.71.16-1.36.48-1.96.89Z"/>
            <path class="cls-11" d="m43.81,126.64l12.53,4.7,9.74-28.44s-11.75,1.68-18.96,13.86l-3.31,9.88Z"/>
            <path class="cls-10" d="m98.04,109.35c.48.32.93.7,1.35,1.09,5.43,5.02,6.91,12.89,7.89,19.92.25,1.82.96,5.44-.4,7-1.47,1.68-4.37.66-5.74-.56-3.53-3.14-4.47-7.45-6.22-11.58-1.51-3.59-2.66-7.34-3.29-11.19-.16-1-.29-2.01-.39-3.02-.11-1.18-.19-1.12.77-1.61,1.22-.63,2.68-1.25,4.07-.93.71.16,1.36.48,1.96.89Z"/>
            <path class="cls-11" d="m108.32,126.64l-12.53,4.7-9.74-28.44s11.75,1.68,18.96,13.86l3.31,9.88Z"/>
            <path class="cls-10" d="m21.06,165.42c0-.25.14-.52.36-.67.35-.24.79-.26,1.22-.28,5.8-.32,11.37-4.79,13.34-10.19l7.16,1.09c-.45,1.23-.9,2.45-1.37,3.67-.65,1.69-1.26,3.46.57,4.66.34.22.78.45.79.85.02.44-.48.71-.91.79-.43.09-.88.1-1.32.05-.87-.11-1.68-.48-2.52-.71-1.54-.42-2.69.35-4.09.73-1.69.45-3.44.76-5.19.92-2.45.23-4.93.12-7.35-.3-.18-.03-.37-.07-.51-.19-.12-.11-.17-.26-.17-.41Z"/>
            <path class="cls-10" d="m40.38,161.7s-5.55,0-5.55,0c-.46-.23,1.38-8.56,1.54-9.32.5-2.47,4.45-12.64,5.35-14.99.64-1.67,1.46-3.34,2.72-4.57,2.84-2.78,8.05-1.47,7.36,2.57-.72,4.17-3.67,9.3-5.28,13.09-.35.83-4.26,9.46-6.14,13.22Z"/>
            <path class="cls-4" d="m96.28,144.28s-11.93-.9-20.29,1.58c-8.36-2.49-20.29-1.58-20.29-1.58l-3.02,5.49c1.11,24.22,16.22,14.26,21.33,13.44.63-.1,1.3-.37,1.99-.76.68.39,1.36.66,1.99.76,5.1.83,20.22,10.78,21.33-13.44l-3.02-5.49Z"/>
            <path class="cls-5" d="m93.37,148.65h-34.76s1.55-11.6.84-18.76c-.7-7.15-4.36-21.23-2.67-23.29.56-.69,4.06-2.22,7.66-3.58,1.66-.62,3.34-1.21,4.77-1.66,1.69-.54,3.02-.88,3.57-.88h6.42c.54,0,1.88.35,3.57.88,4.54,1.43,11.61,4.23,12.43,5.23,1.69,2.06-1.97,16.14-2.67,23.29-.7,7.15.84,18.76.84,18.76Z"/>
            <path class="cls-2" d="m50.33,196.09s-3.37-39.56,1.4-48.17,16.01-3.93,14.61,12.23c-1.4,16.16-3.09,35.94-3.09,35.94h-12.92Z"/>
            <polygon class="cls-10" points="80.28 101.36 80.21 100.3 79.94 96.44 72.5 96.44 72.4 98 72.17 101.36 80.28 101.36"/>
            <path class="cls-8" d="m80.21,100.3c-2.83.76-5.99-1-7.81-2.3l.11-1.56h7.44l.26,3.86Z"/>
            <path class="cls-10" d="m82.44,92.07c0,1.07-.23,2.08-.63,2.97-.99,2.2-3.04,3.71-5.42,3.71-3.34,0-6.05-2.99-6.05-6.68,0-.22,0-.44.03-.66.3-3.38,2.88-6.02,6.02-6.02,3.34,0,6.05,2.99,6.05,6.68Z"/>
            <path class="cls-8" d="m82.44,92.07c0,1.07-.23,2.08-.63,2.97-4.35-.36-8.84-2.31-11.43-3.63.3-3.38,2.88-6.02,6.02-6.02,3.34,0,6.05,2.99,6.05,6.68Z"/>
            <path class="cls-10" d="m82.77,101.37c-.7,3.1-3.47,5.41-6.78,5.41s-6.08-2.31-6.78-5.41c1.69-.54,3.02-.88,3.57-.88h6.42c.54,0,1.88.35,3.57.88Z"/>
            <path class="cls-3" d="m93.47,88.62c0,1.05-7.64,1.9-17.07,1.9-2.67,0-5.2-.07-7.46-.19-5.69-.3-9.62-.95-9.62-1.71,0-.65,2.88-1.21,7.28-1.56,2.77-.22,6.15-.35,9.79-.35,9.43,0,17.07.86,17.07,1.91Z"/>
            <path class="cls-13" d="m93.47,88.62c0,1.05-7.64,1.9-17.07,1.9-2.67,0-5.2-.07-7.46-.19-1.8-.66-2.85-1.43-2.85-2.27,0-.34.18-.68.51-.99,2.77-.22,6.15-.35,9.79-.35,9.43,0,17.07.86,17.07,1.91Z"/>
            <path class="cls-3" d="m85.23,90.66h-17.67s.48-.94.78-2.21c.05-.21.09-.42.13-.64.12-.68.16-1.41.05-2.13-.35-2.39,3.68-5.94,5.28-6.06,1.14-.08,2.12.45,2.6.76.48-.31,1.47-.84,2.6-.76,1.6.12,5.63,3.66,5.28,6.06-.1.71-.06,1.43.05,2.1.04.22.08.44.13.64.3,1.29.78,2.24.78,2.24Z"/>
            <g>
              <path class="cls-3" d="m59.33,88.68v-.02s0,0,0,.02Z"/>
              <path class="cls-3" d="m93.46,89.28s0,0,0-.01c0,0,0,0,0,0v-.58s-.07.17-.44.37c-1.75.84-8.53,1.47-16.63,1.47s-14.8-.62-16.6-1.46c-.4-.21-.46-.33-.47-.38v.56s0,.02,0,.02c0,.01,0,.03,0,.04h0s0,0,0,0c.21,1.03,7.77,1.86,17.07,1.86s16.85-.83,17.07-1.86h0v-.03Z"/>
              <path class="cls-3" d="m93.46,88.66v.02s0-.02,0-.02Z"/>
            </g>
            <g class="cls-19">
              <path class="cls-3" d="m84.45,88.42c-2.52.12-5.36.2-8.36.2-2.76,0-5.38-.06-7.75-.17.05-.21.09-.42.13-.64,2.33.1,4.91.16,7.62.16,2.95,0,5.74-.07,8.23-.19.04.22.08.44.13.64Z"/>
            </g>
            <g>
              <path class="cls-3" d="m117.28,160.79c3.63,1.34,7.72,1.6,11.54.75,1.92-.43,3.82-1.17,5.26-2.41,2.47-2.13,3.31-5.49,2.89-8.56-.42-3.07-1.95-5.9-3.61-8.59-1.52-2.45-3.16-4.83-4.93-7.13-1.67-2.16-3.45-4.27-4.83-6.6-1.17-1.98-2.03-4.09-2.88-6.2-.72-1.79-1.45-3.58-2.17-5.37-.91.05-3.25.05-3.69.97-.18.37-.14.8-.07,1.2.29,1.67,1,3.25,1.7,4.81,1.22,2.71,2.44,5.43,4.02,7.97,3.98,6.39,10.09,11.69,11.26,19.28.11.75.19,1.51.1,2.26-.18,1.6-1.08,3.12-2.44,4.14-3.06,2.27-8.18,1.66-11.72.99-.23.77-.19,1.71-.42,2.48Z"/>
              <path class="cls-13" d="m117.28,160.79c3.63,1.34,7.72,1.6,11.54.75,1.92-.43,3.82-1.17,5.26-2.41,2.47-2.13,3.31-5.49,2.89-8.56-.42-3.07-1.95-5.9-3.61-8.59-1.52-2.45-3.16-4.83-4.93-7.13-1.67-2.16-3.45-4.27-4.83-6.6-1.17-1.98-2.03-4.09-2.88-6.2-.72-1.79-1.45-3.58-2.17-5.37-.91.05-3.25.05-3.69.97-.18.37-.14.8-.07,1.2.29,1.67,1,3.25,1.7,4.81,1.22,2.71,2.44,5.43,4.02,7.97,3.98,6.39,10.09,11.69,11.26,19.28.11.75.19,1.51.1,2.26-.18,1.6-1.08,3.12-2.44,4.14-3.06,2.27-8.18,1.66-11.72.99-.23.77-.19,1.71-.42,2.48Z"/>
              <path class="cls-3" d="m116.81,160.65c3.12,1.36,6.63,1.65,9.89.82,1.65-.42,3.26-1.14,4.5-2.38,2.11-2.11,2.8-5.47,2.42-8.54-.38-3.07-1.71-5.91-3.15-8.61-1.31-2.46-2.74-4.85-4.27-7.16-1.44-2.17-2.99-4.29-4.18-6.63-1.01-1.98-1.76-4.11-2.51-6.22-.63-1.79-1.27-3.59-1.9-5.38-.78.04-2.78.03-3.16.95-.15.37-.11.8-.05,1.2.26,1.67.88,3.26,1.49,4.82,1.06,2.72,2.13,5.44,3.5,7.99,3.45,6.41,8.73,11.75,9.77,19.35.1.75.17,1.51.1,2.26-.14,1.6-.9,3.12-2.07,4.12-2.61,2.25-7,1.6-10.03.91-.19.76-.15,1.71-.35,2.48Z"/>
              <g>
                <path class="cls-18" d="m94.26,148.23s-4.24.38-5.13,3.5c-.89,3.12-3.83,10.54,9.73,10.54l-4.1-7.42-.02-6.34-.47-.28Z"/>
                <path class="cls-18" d="m124.07,148.23s4.24.38,5.13,3.5c.89,3.12,3.83,10.54-9.73,10.54l4.1-7.42.02-6.34.47-.28Z"/>
              </g>
              <path class="cls-18" d="m124.02,161.78s-.04.06-.05.09c-.4.66-.88,1.25-1.47,1.69-1.17.87-2.63,1.01-4.01,1.12-1.94.16-3.87.32-5.8.48h-7.03c-1.94-.16-3.87-.32-5.8-.48-1.39-.11-2.84-.25-4.01-1.12-.58-.44-1.07-1.03-1.47-1.69-.01-.03-.03-.05-.05-.09-2.16-3.63-1.62-8.52-.88-12.85.41-2.38.86-4.76,1.28-7.14.17-.96.34-1.91.49-2.87.58-3.52,1.05-7.04,1.22-10.6.05-1.09.08-2.19.07-3.29h25.34c-.02,2.54.14,5.06.4,7.57.23,2.11.54,4.21.88,6.31.15.96.32,1.91.49,2.87.43,2.38.87,4.76,1.28,7.14.75,4.34,1.28,9.22-.88,12.85Z"/>
              <path class="cls-16" d="m122.24,132.61c-10.38-.91-20.57-3.06-25.82-4.29.05-1.09.08-2.19.07-3.29h25.34c-.02,2.54.14,5.06.4,7.57Z"/>
              <path class="cls-3" d="m122.61,160.46c-.36.59-.8,1.13-1.34,1.53-1.07.79-2.38.91-3.65,1.02-1.76.15-3.51.29-5.27.43h-6.39c-1.26-.11-2.53-.21-3.8-.31-.49-.04-.98-.08-1.47-.12-1.26-.11-2.58-.23-3.65-1.02-.53-.4-.97-.94-1.34-1.53-2.01-3.31-1.52-7.78-.84-11.75,0,0,0-.01,0-.02h28.57v.02c.69,3.97,1.17,8.45-.84,11.75Z"/>
              <path class="cls-13" d="m122.61,160.46c-.36.59-.8,1.13-1.34,1.53-1.07.79-2.38.91-3.65,1.02-1.76.15-3.51.29-5.27.43h-6.39c-1.26-.11-2.53-.21-3.8-.31,4.16-3.46,7.1-8.63,9.17-14.44h12.11v.02c.69,3.97,1.17,8.45-.84,11.75Z"/>
              <g>
                <path class="cls-3" d="m102.54,133.03v-7.44c0-.73-.6-1.33-1.33-1.33s-1.33.6-1.33,1.33v7.44h2.67Z"/>
                <path class="cls-3" d="m118.46,133.03v-7.44c0-.73-.6-1.33-1.33-1.33s-1.33.6-1.33,1.33v7.44h2.67Z"/>
              </g>
              <g>
                <path class="cls-3" d="m100.96,145.5v-3.65c0-.79-.65-1.44-1.44-1.44s-1.44.65-1.44,1.44v3.65h2.88Z"/>
                <path class="cls-3" d="m120.24,145.5v-3.65c0-.79-.65-1.44-1.44-1.44s-1.44.65-1.44,1.44v3.65h2.88Z"/>
              </g>
              <path class="cls-3" d="m123.61,141.79c-.18.07-.36.11-.56.11h-27.78c-.2,0-.39-.04-.56-.11.17-.96.34-1.91.49-2.87.02,0,.05,0,.07,0h27.78s.05,0,.07,0c.15.96.32,1.91.49,2.87Z"/>
              <path class="cls-18" d="m124.02,161.91s-.03.06-.05.09c-.4.66-.89,1.25-1.47,1.68-1.17.87-2.63,1.01-4.02,1.12-1.93.16-3.87.32-5.8.48h-7.03c-1.94-.16-3.87-.32-5.8-.48-1.39-.11-2.84-.25-4.02-1.12-.58-.43-1.07-1.03-1.47-1.68-.02-.03-.03-.06-.05-.09h29.72Z"/>
              <path class="cls-3" d="m123.36,120.2v5.78c0,.79-.64,1.43-1.43,1.43h-25.54c-.79,0-1.43-.64-1.43-1.43v-5.78c0-3.97,3.25-7.22,7.21-7.22h13.97c1.94,0,3.71.78,5.01,2.03,1.36,1.32,2.21,3.15,2.21,5.18Z"/>
              <path class="cls-13" d="m123.36,120.2v5.78c0,.79-.64,1.43-1.43,1.43h-6.39c.48-5.63.54-10.74.48-14.43h.12c1.94,0,3.71.78,5.01,2.03,1.36,1.32,2.21,3.15,2.21,5.18Z"/>
              <path class="cls-13" d="m121.16,115.02c-2.3,1.45-6.16,3.35-10.49,3.29-6.94-.1-8.42-5.18-8.42-5.18l.02-.14h13.87c1.94,0,3.71.78,5.01,2.03Z"/>
            </g>
            <path class="cls-10" d="m115.14,115.67c-1.45.18-2.94-.27-4.39-.05-1.19.18-2.41.8-3.52.33-.83-.35-1.31-1.2-1.94-1.84-.54-.54-1.21-.95-1.94-1.17,1.16-1.16,2.45-2.23,3.95-2.9,1.5-.67,3.24-.91,4.81-.41.55.18,1.06.44,1.55.73.56.34,1.08.72,1.58,1.13.58.49,1.15,1.04,1.41,1.76s.12,1.62-.49,2.07c-.29.21-.66.3-1.02.35Z"/>
            <path class="cls-2" d="m101.64,196.09s3.37-39.56-1.4-48.17-16.01-3.93-14.61,12.23c1.4,16.16,3.09,35.94,3.09,35.94h12.92Z"/>
          </g>
        </g>
      </g>
    </g>
  </g>
</svg>