<?xml version="1.0" encoding="UTF-8"?>
<svg xmlns="http://www.w3.org/2000/svg" xmlns:xlink="http://www.w3.org/1999/xlink" viewBox="0 0 158.13 227.86">
  <defs>
    <style>
      .cls-1 {
        fill: #972468;
      }

      .cls-1, .cls-2, .cls-3, .cls-4, .cls-5, .cls-6, .cls-7, .cls-8, .cls-9, .cls-10, .cls-11, .cls-12, .cls-13, .cls-14, .cls-15, .cls-16 {
        stroke-width: 0px;
      }

      .cls-1, .cls-5, .cls-9, .cls-10, .cls-12 {
        opacity: .5;
      }

      .cls-1, .cls-5, .cls-9, .cls-12 {
        mix-blend-mode: multiply;
      }

      .cls-2 {
        fill: #ff96cb;
      }

      .cls-3 {
        fill: url(#linear-gradient);
      }

      .cls-4, .cls-10 {
        fill: #37b34a;
      }

      .cls-5 {
        fill: #be5e66;
      }

      .cls-6 {
        fill: #fcee21;
      }

      .cls-17 {
        isolation: isolate;
      }

      .cls-7 {
        fill: #faa;
      }

      .cls-8 {
        fill: #29abe2;
      }

      .cls-9 {
        fill: url(#linear-gradient-2);
      }

      .cls-10 {
        mix-blend-mode: screen;
      }

      .cls-11 {
        fill: #f7d290;
      }

      .cls-12 {
        fill: #ae5d1e;
      }

      .cls-13 {
        fill: #006837;
      }

      .cls-14 {
        fill: #ed1e79;
      }

      .cls-15 {
        fill: #601a13;
      }

      .cls-16 {
        fill: #f65d1e;
      }
    </style>
    <linearGradient id="linear-gradient" x1="88.17" y1="96.98" x2="109.1" y2="96.98" gradientUnits="userSpaceOnUse">
      <stop offset="0" stop-color="#601a13"/>
      <stop offset="1" stop-color="#3b1414"/>
    </linearGradient>
    <linearGradient id="linear-gradient-2" x1="63" y1="138.37" x2="63" y2="127.56" xlink:href="#linear-gradient"/>
  </defs>
  <g class="cls-17">
    <g id="Capa_2" data-name="Capa 2">
      <g id="OBJECTS">
        <path class="cls-4" d="m158.13,166.98V.01s0-.01-.01-.01H0v166.98h158.13Z"/>
        <path class="cls-10" d="m147.94,138.52c-10.88,3.04-22.23,4.38-33.51,3.96-6.28-.23-12.53-1.01-18.81-1.35-14.23-.76-28.47.71-42.69,1.65-17.62,1.17-35.27,1.54-52.93,1.78v-68.27c4.25-.18,8.56,1.09,11.92,3.71,4.74,3.71,7.65,9.81,13.21,12.15,8.02,3.38,18.11-2.57,25.62,1.82,4.25,2.48,6.31,7.62,10.38,10.39,7.82,5.33,19.47-.05,27.51,4.96,3.05,1.9,5.19,5.12,8.43,6.7,4.99,2.42,11.1.3,16.4,1.93,5.28,1.62,8.79,6.62,13.67,9.2,2.48,1.31,5.24,1.96,7.86,2.93,4.87,1.79,9.33,4.7,12.94,8.44Z"/>
        <path class="cls-10" d="m158.13,59.1v89.41c-20.33,2.48-41.39-1.75-62.09-2-8.69-.11-17.37.48-26.05.72-14.85.4-29.7-.25-44.53-.91-2.25-.09-4.6-.23-6.52-1.4s-3.18-3.75-2.12-5.74c6.52-3.09,13.25-6.35,17.9-11.87,3.89-4.62,6.19-10.68,11.11-14.19,4.67-3.34,11.17-3.93,15.01-8.19,4.46-4.95,3.93-13.36,9.19-17.44,3.33-2.58,8.2-2.68,11.24-5.6,2.89-2.78,3.24-7.22,4.93-10.86,2.21-4.78,7.02-8.26,12.25-8.84,4.86-.55,9.84,1.23,14.62.21,6.96-1.47,12.34-8.6,19.44-8.1,4.52.32,8.29,3.75,12.75,4.5,2.45.42,4.96-.01,7.44-.09,1.82-.06,3.64.07,5.43.39Z"/>
        <path class="cls-13" d="m158.13,101.66v37.85l-96.32-3.3s22.36-57.08,96.32-34.55Z"/>
        <path class="cls-13" d="m18.5,87.76c2.35-3.96,6.29-6.55,10.41-8.13,2.26-.87,4.61-1.47,7-1.75,1.24-.15,2.48-.21,3.73-.17.51.01,1.04.05,1.55.1-1.01-.66-2.13-1.13-3.29-1.37-.42-.08-.84-.14-1.26-.13-1.31.03-2.53.68-3.83.78-.26.02-.54.01-.77-.13-.39-.24-.51-.82-.39-1.28.12-.46.42-.83.72-1.19-1.76.9-3.65,1.48-5.59,1.72-.36.04-.73.07-1.08-.03-.35-.1-.69-.36-.8-.74-.12-.42.06-.87.31-1.2.25-.34.58-.6.82-.95-1.77.72-3.86.48-5.48-.62-.07-.05-.15-.11-.22-.17-.33-.29-.6-.7-.45-1.1.1-.26.36-.41.6-.53,2.38-1.19,5-1.89,7.65-1.9,2.64,0,5.32.7,7.61,2.17.62.4,1.22.85,1.81,1.3.63.48,1.27.97,1.85,1.52.07.07.13.14.2.21-.19-.52-.35-1.05-.5-1.58-.5-1.76-.94-3.55-1.04-5.39-.09-1.84.19-3.75,1.08-5.36.16-.3.36-.6.65-.73.23-.11.48-.1.71-.01.15.06.29.15.41.26.3.29.46.7.57,1.12.38,1.48.08,3.08-.21,4.6.17-.45.36-.91.68-1.26.33-.34.83-.53,1.24-.33.34.17.52.58.55.98.03.4-.08.8-.2,1.18-.44,1.43-1.03,2.8-1.76,4.09.25-.23.5-.46.8-.59.3-.13.66-.14.92.06.38.31.37.93.25,1.44-.21.88-.61,1.69-.87,2.56-.22.73-.32,1.49-.32,2.25.07-.06.14-.12.22-.17.33-1.18.75-2.32,1.37-3.35.57-.93,1.29-1.75,2.01-2.55,1.4-1.53,2.85-3.02,4.54-4.15,1.69-1.13,3.67-1.87,5.67-1.78.37.02.76.07,1.05.32.18.16.3.38.36.63.06.25.07.52,0,.77-.11.49-.41.9-.75,1.25-1.2,1.25-2.87,1.8-4.48,2.32.52-.06,1.06-.11,1.56.06.5.17.96.63.99,1.2.02.47-.26.9-.63,1.16-.36.25-.8.35-1.23.44-1.59.3-3.21.41-4.83.3.35.15.71.3,1,.56.29.27.5.67.44,1.06-.08.6-.68.93-1.22,1.08-.94.26-1.94.26-2.9.45-.39.08-.76.19-1.13.33.14.11.27.24.38.39,4.71-1.24,9.72-1.19,14.44.18.53.15,1.07.33,1.5.7.43.37.73.98.61,1.55-.02.09-.05.18-.09.26-.3.65-1.1.93-1.8,1.04-1.92.31-3.92.18-5.81-.35.91.43,1.85.89,2.49,1.71.64.82.87,2.12.24,2.92-.49.63-1.36.79-2.11.58-.75-.21-1.39-.73-1.98-1.27-1.03-.95-1.96-2.02-2.77-3.19.38.68,0,1.68-.7,1.88-1.01.28-1.83-.84-2.48-1.74-.49-.68-1.05-1.3-1.66-1.85-.07.07-.14.14-.22.2,12.93,18.83,20.89,54.42,22.06,59.88l-3.05.36-1.45.17c-.31-2.08-2.82-18.13-7.89-35.43-3.42-11.69-7.55-19.34-10.14-23.4-.21.25-.48.43-.79.52.2.42.42.82.66,1.21.58.94,1.32,2.13.75,3.07-.4.65-1.4.71-1.88.11.78,1.2,1.43,2.48,1.94,3.83.29.77.54,1.59.49,2.41s-.47,1.66-1.18,1.96c-.91.38-1.99-.26-2.51-1.18-.52-.91-.63-2.01-.72-3.07-.13,2.09-.66,4.16-1.54,6.01-.36.76-.95,1.58-1.75,1.5-.23-.02-.44-.13-.62-.28-.25-.2-.44-.51-.55-.83-.19-.55-.17-1.16-.14-1.75.34-5.97,2.32-11.79,5.62-16.55,0,0,0,0,0,0-1.09,1.09-2.07,2.3-2.88,3.65-.25.42-.55.89-1.01.92-.4.03-.76-.32-.91-.73-.15-.4-.14-.85-.13-1.28-.22.86-.44,1.73-.65,2.6-.19.77-.4,1.57-.9,2.16-.49.59-1.37.9-2.01.48-.72-.48-.8-1.54-.8-2.44-.48,2.02-1.11,3.99-1.88,5.89-.37.92-.88,1.92-1.79,2.18-.83.23-1.75-.31-2.19-1.11-.44-.8-.47-1.8-.27-2.7.21-.9.63-1.71,1.04-2.52-1.96,2.11-4.62,3.46-7.4,3.75-.42.04-.85.06-1.24-.09-.28-.11-.53-.32-.67-.6-.06-.12-.1-.24-.11-.38-.03-.37.15-.71.34-1.02Z"/>
        <rect class="cls-8" x="0" y="134.6" width="158.13" height="21.88"/>
        <rect class="cls-11" x="0" y="150.56" width="158.13" height="16.42"/>
        <path class="cls-6" d="m79.9,54.76c0,3.84-3.11,6.95-6.95,6.95s-6.95-3.11-6.95-6.95,3.11-6.95,6.95-6.95,6.95,3.11,6.95,6.95Z"/>
        <g>
          <path class="cls-3" d="m107.76,106.08c.59-.1,1.1-.58,1.28-1.19.17-.61,0-1.31-.43-1.75-.21-.21-.47-.36-.66-.58-.3-.35-.42-.86-.3-1.32.1-.37.34-.68.46-1.04.21-.62.05-1.36-.4-1.81-.36-.35-.88-.56-1.06-1.04-.38-1.08,1.36-2.05.99-3.13-.23-.68-1.21-.91-1.25-1.63-.03-.55.53-1.15.2-1.58-.19-.25-.57-.22-.8-.43-.34-.31-.17-.96-.47-1.31-.26-.3-.71-.25-1.07-.39-.46-.18-.74-.69-1.17-.95-.58-.35-1.3-.17-1.92.08s-1.26.57-1.92.49c-.69-.09-1.25-.59-1.82-1s-1.29-.76-1.94-.5c-.49.2-.87.72-1.39.75-.45.03-.84-.32-1.29-.36-.5-.05-.96.29-1.36.62-.36.29-.77.73-.62,1.19.06.18.21.33.21.52,0,.23-.2.4-.4.47-.2.07-.42.06-.62.14-.38.15-.63.61-.56,1.03.05.3.23.57.23.87,0,.47-.43.79-.73,1.14-.47.56-.62,1.52-.1,2.03.38.37,1.02.44,1.22.94.29.75-.74,1.59-.38,2.3.06.13.17.23.22.36.12.27.01.59-.16.82-.18.23-.41.38-.62.57-.65.59-1.01,1.52-.95,2.42.02.23.06.47.18.66.1.16.26.28.36.44.25.4.15.93.17,1.4.05.87.72,1.74,1.54,1.7.71-.03,1.24-.66,1.71-1.23.46-.57,1.05-1.17,1.75-1.12.78.06,1.35.9,2.13.99.55.07,1.07-.26,1.54-.57.68-.44,1.39-.87,2.18-.99.79-.12,1.67.15,2.11.85.14.23.25.52.47.67.56.39,1.27-.38,1.93-.25.49.09.77.62,1.06,1.05.29.43.8.85,1.24.6.32-.18.44-.65.77-.82.14-.07.3-.07.45-.1Z"/>
          <path class="cls-14" d="m97.96,205.58s-2.31,7.03,1.21,14.05c3.51,7.03,8.47,8.51,12.22,8.18,3.75-.33,3.81-5,2.49-5.22s-3.24,2.42-3.24,2.42l-6.59-2.75-5.65-12.52-.44-4.17Z"/>
          <path class="cls-14" d="m61.67,204.1c.83.77,1.8,1.35,2.82,1.84.54.26,1.08.49,1.63.71.53.22,1.08.29,1.59.5.1.04.19.09.29.11.09.02.18.03.28.04,1.74.17,3.34.38,5.08.03,2.22-.45,4.25-1.6,6.04-2.99.84-.65,1.51-1.45,2.29-2.15.66-.58,1.09-1.09,1.52-1.88.97-1.8,1.57-3.81,1.68-5.86.01-.19.01-.39-.07-.56-.09-.17-.29-.3-.47-.23-.87,2.92-2.39,5.67-4.57,7.8-2.18,2.13-5.03,3.61-8.05,3.97-.51.06-1.04.09-1.55.05-.7-.05-1.38-.23-2.04-.44-1.69-.52-3.34-1.26-4.7-2.39-1.36-1.13-2.41-2.69-2.69-4.44-.44-.3-1.08,0-1.32.48-.23.47-.16,1.04-.03,1.55.37,1.46,1.16,2.81,2.26,3.84Z"/>
          <path class="cls-1" d="m97.96,205.58s-2.31,7.03,1.21,14.05c3.51,7.03,8.47,8.51,12.22,8.18,3.75-.33,3.81-5,2.49-5.22s-3.24,2.42-3.24,2.42l-6.59-2.75-5.65-12.52-.44-4.17Z"/>
          <path class="cls-1" d="m61.67,204.1c.83.77,1.8,1.35,2.82,1.84.54.26,1.08.49,1.63.71.53.22,1.08.29,1.59.5.1.04.19.09.29.11.09.02.18.03.28.04,1.74.17,3.34.38,5.08.03,2.22-.45,4.25-1.6,6.04-2.99.84-.65,1.51-1.45,2.29-2.15.66-.58,1.09-1.09,1.52-1.88.97-1.8,1.57-3.81,1.68-5.86.01-.19.01-.39-.07-.56-.09-.17-.29-.3-.47-.23-.87,2.92-2.39,5.67-4.57,7.8-2.18,2.13-5.03,3.61-8.05,3.97-.51.06-1.04.09-1.55.05-.7-.05-1.38-.23-2.04-.44-1.69-.52-3.34-1.26-4.7-2.39-1.36-1.13-2.41-2.69-2.69-4.44-.44-.3-1.08,0-1.32.48-.23.47-.16,1.04-.03,1.55.37,1.46,1.16,2.81,2.26,3.84Z"/>
          <path class="cls-7" d="m116.01,105.58l1.73.84c.98,3.89,1.5,7.87,2.35,11.77.89,4.08,2.04,8.02,2.61,12.17.25,1.82.96,5.44-.4,7-1.47,1.68-4.37.66-5.74-.56-3.53-3.14-4.47-7.45-6.22-11.58-2.06-4.88-3.47-10.16-3.77-15.47l9.44-4.17Z"/>
          <path class="cls-7" d="m80.94,106.82l-1.76-.77s-20.09,9.98-22.4,16.3c-2.31,6.32,16.14,2.69,27.12-5.65l-2.96-9.88Z"/>
          <path class="cls-7" d="m138.09,165.42c0-.25-.14-.52-.36-.67-.35-.24-.79-.26-1.22-.28-5.8-.32-10.16-3.7-12.13-9.1h-8.36c.45,1.23.9,2.45,1.37,3.67.65,1.69,1.26,3.46-.57,4.66-.34.22-.78.45-.79.85-.02.44.48.71.91.79.43.09.88.1,1.32.05.87-.11,1.68-.48,2.52-.71,1.54-.42,2.69.35,4.09.73,1.69.45,3.44.76,5.19.92,2.45.23,4.93.12,7.35-.3.18-.03.37-.07.51-.19.12-.11.17-.26.17-.41Z"/>
          <g>
            <g>
              <path class="cls-15" d="m38.62,127.81s1.11-1.68,3.29-2.36v.49s-1.19.55-1.65,1.87h-1.65Z"/>
              <path class="cls-15" d="m57.42,127.81s-1.11-1.68-3.29-2.36v.49s1.19.55,1.65,1.87h1.65Z"/>
            </g>
            <path class="cls-16" d="m76,129.66v33.63c0,1.16-.94,2.1-2.09,2.1H22.13c-1.16,0-2.09-.94-2.09-2.1v-33.63c0-1.16.94-2.09,2.09-2.09h51.77c1.16,0,2.09.94,2.09,2.09Z"/>
            <path class="cls-16" d="m53.42,126.82c-3.67-.5-7.13-.5-10.8,0-.65.11-1.29-.3-1.42-.94h0c-.13-.64.32-1.28,1.03-1.4,3.93-.56,7.67-.56,11.59,0,.7.12,1.16.76,1.03,1.4h0c-.13.64-.77,1.05-1.42.94Z"/>
            <path class="cls-15" d="m25.23,128.34c0,2.36-1.92,4.28-4.28,4.28-.31,0-.62-.03-.91-.1v-2.87c0-1.16.94-2.09,2.09-2.09h3.02c.05.25.07.52.07.78Z"/>
            <path class="cls-15" d="m70.81,128.34c0,2.36,1.92,4.28,4.28,4.28.31,0,.62-.03.91-.1v-2.87c0-1.16-.94-2.09-2.09-2.09h-3.02c-.05.25-.07.52-.07.78Z"/>
            <path class="cls-15" d="m25.23,164.6c0-2.36-1.92-4.28-4.28-4.28-.31,0-.62.03-.91.1v2.87c0,1.16.94,2.09,2.09,2.09h3.02c.05-.25.07-.52.07-.78Z"/>
            <path class="cls-15" d="m70.81,164.6c0-2.36,1.92-4.28,4.28-4.28.31,0,.62.03.91.1v2.87c0,1.16-.94,2.09-2.09,2.09h-3.02c-.05-.25-.07-.52-.07-.78Z"/>
            <path class="cls-9" d="m76,129.66v8.7c-13.68.37-23.02-7.78-26-10.79h23.9c1.16,0,2.09.94,2.09,2.09Z"/>
            <path class="cls-12" d="m76,129.66v33.63c0,1.16-.94,2.1-2.09,2.1H29.5c26.33-12.58,30.14-31.22,30.64-37.82h13.77c1.16,0,2.09.94,2.09,2.09Z"/>
          </g>
          <path class="cls-14" d="m111.36,165.93h-26.03c-17.27-5.42-4.69-20.05-4.69-20.05,5.42-9.37,2.78-16.98,2.78-16.98-5.27-17.57-4.25-22.84-4.25-22.84l5.53-1.81c1.42-.47,2.87-.82,4.33-1.05.19-.03.37-.06.56-.08,1.29-.18,2.59-.27,3.89-.27h9.7c1.3,0,2.6.09,3.89.27,1.66.23,3.3.61,4.9,1.13l5.53,1.81s1.02,5.27-4.25,22.84c0,0-2.64,7.61,2.78,16.98,0,0,12.59,14.64-4.69,20.05Z"/>
          <path class="cls-7" d="m102.79,219.8c-2.74-4.5-4.17-11.4-3.84-15.25.27-3.19-3.68-14.38-5.48-26.26-.37-2.44-.65-4.91-.78-7.34-.77-14.28,9.66-25.48,9.66-25.48l4.72,4.61,1.39,7.5s-.05,1.43-.12,3.76c0,.26-.02.54-.03.83-.25,8.38-.69,26-.37,33.81.44,10.43,4.5,23.06,5.27,25.14s-7.69,3.18-10.43-1.32Z"/>
          <path class="cls-5" d="m108.46,157.58s-.05,1.43-.12,3.76c0,.26-.02.54-.03.83-7.83,5.2-14.85,16.13-14.85,16.13-.37-2.44-.65-4.91-.78-7.34-.77-14.28,9.66-25.48,9.66-25.48l4.72,4.61,1.39,7.5Z"/>
          <path class="cls-7" d="m111.39,146.02c-.29,4.98-2.92,11.56-2.92,11.56l-4.83-6.88c-5.27,18.74-18.6,33.38-19.18,39.82-.58,6.44-4.54,9.96-4.54,9.96-6.88,9.08-20.06.44-18.45-1.61,1.61-2.05,6.73-.29,12.74-9.95,5.12-8.25,7.79-31.86,14.2-43.88.71-1.34,1.48-2.54,2.29-3.55.43-.54.89-1.04,1.36-1.47,9.22-8.49,19.32,6,19.32,6Z"/>
          <path class="cls-5" d="m91.71,146.39c-.83.76-2.21-.26-3.3-1.35.71-1.34,1.48-2.54,2.29-3.55.97,1.92,1.82,4.16,1.01,4.9Z"/>
          <path class="cls-7" d="m91.71,146.39c-.6.17-1.3-.71-1.63-1.09-.65-.74-1.17-1.59-1.6-2.48-.23-.47-.43-.94-.61-1.42-.57-1.5-.76-3.11-1.15-4.65-.07-.26-.14-.52-.3-.73,0,0,0,0,0,0-.04-.05-.07-.09-.11-.12,0,0-.01-.02-.02-.03-.43-.37-.89-.04-1.07.49-.11.33-.2.7-.49.89-.36.24-.89.04-1.15-.31-.26-.35-.33-.8-.39-1.23-.1-.71-.2-1.42-.29-2.13-.09-.63-.18-1.26-.47-1.82-.27-.51-.66-.8-1.11-.96-.51-.18-1.11-.21-1.7-.24-1.18-.05-2.36-.11-3.54-.17-1.48-.07-2.96-.11-4.44-.22-3.84-.29-9.78-.04-13.18-2.11-3.36-2.05-2.55-6.74.96-8.07,1.56-.6,3.29-.57,4.96-.38,2.34.27,11.64,2.02,13.91,2.71,1.75.54,3.55.99,5.27,1.61,2.07.75,3.76,2.57,4.88,4.41.84,1.36,1.23,3,1.7,4.53.48,1.58.87,3.18,1.16,4.8.04.18.07.36.1.55.08.52.16,1.03.23,1.55.09.6.18,1.2.26,1.8.14.95.28,1.91.41,2.86.08.56.15,1.76-.58,1.97Z"/>
          <path class="cls-5" d="m86.27,135.86c-.43-.37-.89-.04-1.07.49-.11.33-.2.7-.49.89-.36.24-.89.04-1.15-.31-.26-.35-.33-.8-.39-1.23-.1-.71-.2-1.42-.29-2.13-.09-.63-.18-1.26-.47-1.82-.27-.51-.66-.8-1.11-.96h0s1.39.3,1.9,1.33c.44.89,2.49,3.14,3.06,3.75Z"/>
          <path class="cls-7" d="m119.3,162.66s4.72-.96,4.72-.96c.5-.1.8-6.95.85-7.72.17-2.52-.18-12.61-.43-15.12-.18-1.78-.52-3.6-1.41-5.13-2-3.43-7.38-3.55-7.77.53-.41,4.22,1.08,9.94,1.62,14.02.12.89,1.61,10.25,2.42,14.38Z"/>
          <path class="cls-14" d="m69.13,206.28c-3.79-.6-7.7-2.74-8.86-6.4-.13-.42-.23-.87-.1-1.28.23-.76,1.07-1.12,1.82-1.38,2.48-.88,4.96-1.76,7.44-2.63.12,1.39.98,2.64,2.13,3.43,1.15.78,2.55,1.14,3.94,1.21,2.34.13,4.94-.69,6.08-2.73.61-1.09.72-2.37,1.03-3.57.31-1.21.92-2.46,2.06-2.95.8,3.23-.06,6.75-1.93,9.5-1.87,2.75-4.68,4.78-7.73,6.11-.72.31-1.47.59-2.24.74-1.2.24-2.44.16-3.64-.03Z"/>
          <path class="cls-14" d="m113.72,224.94c.92-1.59.58-3.87-.35-5.78-.24-.5-.68-1.54-1.21-1.79-.71-.34-.89.03-1.63.36-1.19.54-2.53.76-3.83.59-1.86-.23-3.61-1.24-4.75-2.72-1.42-1.85-1.84-4.26-2.21-6.57-.26-1.6-.52-3.21-.78-4.81-.39-.16-.85.07-1.08.42-.23.35-.28.79-.31,1.2-.33,3.96.17,7.98,1.46,11.73,1.44,4.2,4.16,7.4,8.46,8.81,1.08.35,2.23.57,3.35.37,1.43-.26,2.35-.93,2.87-1.82Z"/>
          <path class="cls-7" d="m109.1,108.14c0,4.77-4.82,8.63-10.76,8.63-.06,0-.11,0-.17,0-.27,0-.54-.01-.8-.03-5.49-.39-9.79-4.09-9.79-8.6,0-1.88.75-3.62,2.02-5.03,1.29-.18,4.65-1.3,4.68-1.72l.23-3.38.11-1.56h7.44l.26,3.86.07,1.08c.03.42,3.39,1.54,4.68,1.72,1.28,1.41,2.02,3.15,2.02,5.03Z"/>
          <path class="cls-5" d="m102.33,100.3c-2.83.76-5.99-1-7.81-2.3l.11-1.56h7.44l.26,3.86Z"/>
          <path class="cls-14" d="m117.58,89.75l-.32.37s-5.23,1.36-10.5,1.14c-5.27-.22-7.73-.48-7.73-.48,0,0-3.65-.45-7.99-1.51-2.99-.73-6.33-1.76-9-3.15,0,0,3.49-1.11,8.59-.49,1.46.17,3.07.49,4.75,1.02,7.55,2.37,7.93,1.67,7.93,1.67,0,0,8.17-.71,14.26,1.43Z"/>
          <path class="cls-1" d="m117.58,89.75l-.32.37s-5.23,1.36-10.5,1.14c-5.27-.22-7.73-.48-7.73-.48,0,0-3.65-.45-7.99-1.51-.57-1.39-.55-2.71-.42-3.64,1.46.17,3.07.49,4.75,1.02,7.55,2.37,7.93,1.67,7.93,1.67,0,0,8.17-.71,14.26,1.43Z"/>
          <path class="cls-7" d="m104.56,92.07c0,1.07-.23,2.08-.63,2.97-.99,2.2-3.04,3.71-5.42,3.71-3.34,0-6.05-2.99-6.05-6.68,0-.22,0-.44.03-.66.3-3.38,2.88-6.02,6.02-6.02,3.34,0,6.05,2.99,6.05,6.68Z"/>
          <path class="cls-5" d="m104.56,92.07c0,1.07-.23,2.08-.63,2.97-4.35-.36-8.84-2.31-11.43-3.63.3-3.38,2.88-6.02,6.02-6.02,3.34,0,6.05,2.99,6.05,6.68Z"/>
          <path class="cls-14" d="m90.95,89.24s2.46-5.8,3.73-7.69c1.27-1.89,4.48.18,6.94.26,2.46.09,5.14,1.23,5.14,9.44,0,0-11.31-.28-15.81-2.02Z"/>
          <path class="cls-2" d="m106.34,91.59c-5.24,0-9.91-.73-13.45-1.53-6.42-1.45-10.64-3.44-10.68-3.46-.18-.08-.25-.29-.17-.47.08-.18.29-.25.47-.17.04.02,4.2,1.98,10.55,3.42,5.85,1.32,14.81,2.45,24.27.34.19-.04.38.08.42.27.04.19-.08.38-.27.42-3.85.86-7.63,1.19-11.15,1.19Z"/>
          <path class="cls-5" d="m98.17,116.76c-.27,0-.54-.01-.8-.03.03-.91.26-2.03.97-3.15-.04.14-.51,1.72-.17,3.18Z"/>
        </g>
      </g>
    </g>
  </g>
</svg>