<?xml version="1.0" encoding="UTF-8"?>
<svg xmlns="http://www.w3.org/2000/svg" xmlns:xlink="http://www.w3.org/1999/xlink" viewBox="0 0 158.13 217.61">
  <defs>
    <style>
      .cls-1 {
        fill: #4d4d4d;
      }

      .cls-1, .cls-2, .cls-3, .cls-4, .cls-5, .cls-6, .cls-7, .cls-8, .cls-9, .cls-10, .cls-11, .cls-12, .cls-13, .cls-14, .cls-15, .cls-16, .cls-17, .cls-18, .cls-19, .cls-20, .cls-21, .cls-22, .cls-23 {
        stroke-width: 0px;
      }

      .cls-2 {
        fill: #666;
      }

      .cls-3 {
        fill: #37b34a;
      }

      .cls-4 {
        fill: #be5e66;
      }

      .cls-4, .cls-10, .cls-11, .cls-14, .cls-15, .cls-16, .cls-19, .cls-20, .cls-22 {
        mix-blend-mode: multiply;
      }

      .cls-4, .cls-14, .cls-16, .cls-18 {
        opacity: .5;
      }

      .cls-5 {
        fill: #fcee21;
      }

      .cls-6 {
        fill: #e6e6e6;
      }

      .cls-24 {
        isolation: isolate;
      }

      .cls-7 {
        fill: #faa;
      }

      .cls-9 {
        fill: #c93628;
      }

      .cls-10 {
        fill: url(#linear-gradient-5);
      }

      .cls-11 {
        fill: url(#linear-gradient-4);
      }

      .cls-12, .cls-16 {
        fill: #b3b3b3;
      }

      .cls-13, .cls-14 {
        fill: #333;
      }

      .cls-15 {
        fill: url(#linear-gradient);
      }

      .cls-17, .cls-18 {
        fill: #f15a24;
      }

      .cls-18 {
        mix-blend-mode: screen;
      }

      .cls-19 {
        fill: url(#linear-gradient-2);
      }

      .cls-20 {
        fill: url(#linear-gradient-3);
      }

      .cls-21 {
        fill: #006838;
      }

      .cls-22 {
        fill: url(#linear-gradient-6);
      }

      .cls-23 {
        fill: #601a13;
      }
    </style>
    <linearGradient id="linear-gradient" x1="97.85" y1="139.56" x2="98.82" y2="139.56" gradientUnits="userSpaceOnUse">
      <stop offset="0" stop-color="#110b32"/>
      <stop offset="1" stop-color="#2b0d62"/>
    </linearGradient>
    <linearGradient id="linear-gradient-2" x1="102.19" x2="103.15" xlink:href="#linear-gradient"/>
    <linearGradient id="linear-gradient-3" x1="106.52" x2="107.49" xlink:href="#linear-gradient"/>
    <linearGradient id="linear-gradient-4" x1="110.85" x2="111.82" xlink:href="#linear-gradient"/>
    <linearGradient id="linear-gradient-5" x1="115.19" x2="116.15" xlink:href="#linear-gradient"/>
    <linearGradient id="linear-gradient-6" x1="119.52" x2="120.48" xlink:href="#linear-gradient"/>
  </defs>
  <g class="cls-24">
    <g id="Capa_2" data-name="Capa 2">
      <g id="OBJECTS">
        <rect class="cls-17" width="158.13" height="166.98"/>
        <path class="cls-18" d="m158.13,64.38v94.3c-14.89,2.74-30.05,4.07-45.19,3.96-8.97-.07-17.92-.64-26.87-1.22-28.69-1.82-57.38-3.66-86.07-5.49v-40.46c6.11-1.89,13.12-1.88,19.61-1.42,10.36.72,21.56,1.9,30.41-3.54,4.9-3.02,8.74-7.93,14.24-9.62,8.02-2.47,16.5,2.72,24.86,2.03,9.27-.75,16.42-8.47,21.24-16.42,2.18-3.58,4.1-7.34,6.78-10.56,5.17-6.23,13.11-10.08,21.2-10.27,3.42-.09,6.84.44,10.25.36,3.26-.08,6.44-.7,9.54-1.65Z"/>
        <path class="cls-18" d="m158.13,126.26v26.72H0v-83.14c1.74-.4,3.68-.24,5.33.42,3.39,1.36,5.89,4.22,8.41,6.85,2.52,2.64,5.41,5.25,9.01,5.84,5.3.88,10.17-2.83,15.38-4.14,6.16-1.55,13.09.55,17.35,5.25,3.12,3.45,4.77,8.01,7.74,11.6,4.51,5.45,12.09,8.16,19.03,6.82,4.21-.81,8.39-3,12.56-2.01,4.7,1.11,7.53,5.79,11.45,8.6,3.41,2.44,7.79,3.47,11.92,2.79,2.92-.48,5.67-1.76,8.61-2.07,4.82-.52,9.55,1.62,13.52,4.4,3.97,2.77,7.46,6.22,11.52,8.85,1.98,1.29,4.1,2.37,6.3,3.22Z"/>
        <polygon class="cls-9" points="60.19 115.47 60.19 70.47 84.02 70.47 84.02 141.3 61.85 141.3 60.19 115.47"/>
        <path class="cls-9" d="m26.02,83.49v33.32s-1.52,2.17-5.5,8.12c-3.98,5.96-9.75,13.63-9.75,13.63l-2.5,4.85-8.27-.37v-41.37l5.27-5.27h8.87v-12.91h11.88Z"/>
        <path class="cls-9" d="m76.63,141.88h1.82c-5.62-4.24-10.51-10.97-14.54-18.12-.48-.86-.95-1.72-1.42-2.58-.07-.14-.14-.27-.21-.41h0c-.1-.2-.2-.39-.3-.59-.27-.53-.55-1.06-.81-1.58-.05-.09-.1-.19-.14-.28-.3-.6-.59-1.2-.88-1.79-.11-.22-.2-.44-.31-.66h.38c.31,0,.57-.25.57-.57s-.25-.57-.57-.57h-.88l1.06-1.42.1-.9c.05-.07.1-.14.1-.24,0-.21-.17-.38-.38-.38h-2.23c-2.57-5.87-4.49-11.22-5.69-14.82,0,0,0,0,0,0,.06-.08.09-.18.05-.28-.16-.46-.32-.91-.48-1.36-.03-.08-.09-.14-.17-.17-.02-.07-.04-.13-.06-.2-.17-.54-.33-1.07-.5-1.6l.29-2.43.08-.66h-.01s0-.04,0-.04h.01s-1.48-.69-1.48-.69h-.03c-3.9-14.15-5.01-38.79-5.28-46.84l.66-.66v-2.08s.09-.01.11-.05c.05-.06.03-.15-.03-.2l-.08-.06v-1.02s.09-.01.12-.06c.04-.07.02-.15-.04-.2l-.64-.41-.09-.6.08.05c.06.04.15.03.2-.04.04-.06.03-.15-.04-.2l-.17-.12v-.67h.02s.05.03.07.03c.05,0,.1-.02.12-.07.04-.07.02-.15-.05-.19l-.8-.47s-.05-.02-.07-.02h-.7l-.21-.85c-.06-.22-.26-.38-.49-.38h0v-4.6c.16-.08.28-.21.28-.36v-.23c0-.25-.3-.46-.68-.46s-.68.21-.68.46v.23c0,.15.11.28.28.36v4.6h0c-.23,0-.43.16-.49.38l-.21.85h-.7s-.05,0-.07.02l-.8.47c-.07.04-.09.13-.05.19.04.07.13.09.19.05h.02s0,.66,0,.66l-.17.12c-.06.04-.08.13-.04.2.03.04.07.06.12.06.03,0,.06,0,.08-.02l.08-.05-.09.6-.64.41c-.07.04-.08.13-.04.2.03.04.07.06.12.06h0v1.01l-.08.06c-.06.05-.08.14-.03.2.03.04.07.06.11.06h0v2.08l.66.66c-.27,8.05-1.38,32.72-5.29,46.87l-1.44.66s-.02.02-.05.04l.08.66.29,2.43c-.16.53-.32,1.06-.5,1.6-.02.06-.04.13-.06.2-.08.02-.14.09-.17.17-.15.45-.31.9-.48,1.36-.04.11-.01.21.05.29-1.2,3.59-3.12,8.95-5.69,14.82h-2.23c-.21,0-.38.17-.38.38,0,.09.04.17.1.23l.1.9,1.06,1.42h-.88c-.31,0-.57.25-.57.57s.25.57.57.57h.38c-.1.22-.2.44-.31.66h0s0,0,0,0c-.07.16-.15.31-.23.47h0c-.06.13-.12.25-.19.38h0s-.03.07-.05.1c-.14.28-.27.56-.41.84-.05.09-.09.19-.14.28-.36.72-.73,1.45-1.11,2.17-.07.14-.14.27-.21.41-.46.86-.93,1.72-1.42,2.58-4.03,7.15-8.92,13.88-14.54,18.12h1.82s.07-.07.11-.1h4.53s0,0,0,0c0,0,0,0,0,0h3.04s-.02.06-.03.1h1.55c.04-.15.09-.29.13-.44l2.38.09c-.02.12-.06.23-.08.35h1.53c.02-.12.06-.24.09-.36l2.73.02s-.02.04-.03.05c-.03.05-.06.11-.09.15l2.57.02s.04-.09.12-.25c.02-.04.03-.07.05-.11.22-.48.65-1.4,1.17-2.6.03-.07.06-.14.09-.22.12-.27.24-.54.36-.84.05-.12.1-.25.16-.37.04-.09.07-.17.11-.26.43-1.03.89-2.17,1.33-3.36.33-.36.67-.7,1.03-1.03.04-.04.08-.07.11-.11.8-.72,1.67-1.37,2.59-1.93.19-.12.39-.23.59-.34,2.44-1.34,5.23-2.1,8.2-2.07,2.97.02,5.76.82,8.17,2.19.2.11.39.23.58.35.92.58,1.78,1.24,2.56,1.97.04.04.07.07.11.11.35.33.69.68,1.01,1.04.43,1.19.87,2.34,1.28,3.37.03.09.07.18.1.26.05.13.1.25.15.37.12.3.24.58.35.84.03.07.06.15.09.22.51,1.21.92,2.14,1.14,2.62.02.04.03.08.05.11.08.17.12.25.12.25l2.57.02s-.06-.1-.09-.15c-.01-.02-.02-.04-.03-.05l2.94.02s0,.03.01.05h1.53c-.02-.12-.06-.23-.08-.35l2.38-.09c.04.15.09.29.13.44h1.55s-.02-.06-.03-.1h3.04s0,0,0,0c0,0,0,0,0,0h4.53s.07.07.11.1Zm-8.03-1.36l-.02.02c-.29-.98-.61-1.95-1-2.89h0s.63.28.63.28l1.43.63.27.39h0s-.04.04-.04.04l-.04.04-.44.53-.23.27-.55.65-.02.03Zm-10.14-7.59l.33-.66.03-.06c.25.3.49.61.73.92h-.08s-1.11,0-1.11,0l.1-.2Zm-32.34-.24l.1.21-.99-.02c.2-.26.4-.52.61-.77l.28.59Zm-1.88,1.68l.13.3.65,1.47-2.05.34c.37-.75.79-1.46,1.24-2.15l.02.05Zm-8.26,6.15l-.02-.03-.54-.65-.24-.28-.44-.53-.04-.04-.04-.04h0s.27-.39.27-.39h0s1.43-.63,1.43-.63l.63-.28h0c-.39.93-.72,1.9-1,2.89l-.02-.02Zm-1.86-2.22l-.3-.35-.74-.88h2.18l-.71,1.04-.43.19Zm3.39-7.31h0s0,.02,0,.02l.14,1.8.02.18-.16.11-.44.29-.88.59-1.69,1.13-.05.03c1.06-1.32,2.08-2.7,3.07-4.14Zm.69-1.03h1.98l-1.84,2.59h0s-.12.08-.12.08l-.15-1.88v-.05s-.04-.46-.04-.46v-.02c.06-.09.12-.18.18-.27Zm48.35.27v.02s-.04.46-.04.46v.05s-.15,1.88-.15,1.88l-.12-.08-1.85-2.59h1.98c.06.09.12.18.18.27Zm.49,6.28c-.12-.25-.23-.51-.36-.76v-.02s.11-1.37.11-1.37l1.46,2.15h-1.21Zm1.59.57l.42.61h0s-1.39-.61-1.39-.61h.97Zm-5.97-1.81l1.63-.69c.2.33.4.66.59,1l-1.76.56c-.14-.3-.31-.58-.46-.87Zm-41.88,2.47l-1.96-.44c.16-.35.33-.69.5-1.03l1.83.59c-.13.29-.26.58-.37.88Zm-4.83-.66h.98l-1.39.61.41-.61Zm.38-.57l1.45-2.15.11,1.37v.02c-.13.25-.24.51-.36.76h-1.21Zm5.05-5.98l-.06.04-.29.19-.69.46-.02.02-.67.44,1.22-1.71h.97c-.16.18-.31.38-.47.56Zm-2.65,2.44l.24-.16.99-.66.24-.16.03-.02c-.67.91-1.28,1.87-1.84,2.86v-.03s-.08-.96-.08-.96l-.02-.24h0s.2-.3.2-.3l.24-.33h0Zm-3.09,3.53h-2.23l.12-.08.36-.24.45-.3,1.89-1.25,1.24-.82-1.82,2.7Zm5.81-.37l-1.76-.56c.19-.34.39-.67.59-1l1.63.69c-.15.29-.32.57-.46.87Zm.83-1.56l-1.57-.67c.19-.29.4-.57.61-.85l1.43.76c-.16.25-.32.5-.47.76Zm.89-1.41l-1.4-.75c.22-.28.45-.54.68-.82l1.25.82c-.18.25-.35.49-.52.75Zm1-1.36l-1.22-.8c.29-.33.6-.65.91-.96l1.06.84c-.26.3-.51.61-.75.92Zm.24-2.31c.32-.31.66-.6,1-.89l.89.84c-.29.28-.57.58-.85.87l-1.04-.82Zm41.77,5.32v.03c-.56-.99-1.17-1.95-1.84-2.86l.02.02.24.16.99.66.24.16.24.33.2.3-.02.24-.07.96Zm-1.93-3.57l-.03-.02-.68-.46-.29-.19-.05-.04c-.16-.19-.3-.38-.47-.57h.97l1.22,1.71-.67-.44Zm-2.07-1.84c-.6-.63-1.23-1.24-1.88-1.81v-.02s.53-.77.53-.77l.98.52,1.48,2.08h-1.11Zm-3.02-.81c.34.29.68.58,1,.89l-1.04.82c-.28-.3-.56-.59-.85-.87l.89-.84Zm1.55,1.45c.31.31.62.63.91.96l-1.22.8c-.25-.31-.49-.62-.75-.92l1.06-.84Zm1.42,1.56c.23.27.46.53.68.82l-1.4.75c-.17-.25-.34-.5-.52-.75l1.25-.82Zm1.13,1.45c.2.28.41.56.61.85l-1.57.67c-.15-.26-.31-.51-.47-.76l1.43-.76Zm3.85.76l1.23.81,1.89,1.26.45.3.36.24.12.08h-2.23l-1.82-2.69Zm-3.12-4.42l-1.06-1.48.36.19,2.45,1.3h-1.75Zm-41.23-2.08l.98-.52.52.76v.02c-.64.57-1.27,1.18-1.87,1.81h-1.11l1.48-2.08h0Zm-2.18,2.08h-1.75l2.45-1.3.36-.19-1.06,1.49Zm-2.1,8.62l2.03.45c-.08.23-.15.46-.23.7l-2.14-.28c.11-.29.22-.58.34-.87Zm9.01-7.64l.04.04h-.09s.03-.02.05-.04Zm29.33.23l.26-.23c.1.09.21.18.31.28h-.1s-.34-.03-.34-.03h-.12Zm3.5,4.02l.07-.16.03-.07c.49.77.94,1.56,1.34,2.39l-.1-.02-2.16-.39.68-1.46.14-.29Zm4.94,1.63c.18.34.34.68.5,1.03l-1.96.44c-.12-.3-.25-.59-.37-.88l1.83-.59Zm-1.19,2.21l2.03-.45c.12.29.23.58.34.87l-2.14.28c-.07-.23-.15-.47-.23-.7Zm5.96-.36h0s-.7-1.04-.7-1.04h2.18l-.74.88-.3.35-.44-.19Zm.07-3l-1.7-1.13-.88-.59-.44-.29-.16-.11.02-.18.14-1.8v-.02s0,0,0,0c.98,1.44,2.01,2.82,3.07,4.15l-.04-.03Zm-4.59-6.48h0s-1.21-.64-1.21-.64l-2.09-1.1h0s-.72-1.02-.72-1.02l1.27-1.87h0c.88,1.57,1.8,3.12,2.76,4.63Zm-4.29-7.44h-14.21c-1.52-.26-3.08-.4-4.68-.41h18.67c.07.14.14.27.21.41Zm-36.54-2.58s0,0,0,0c.05-.09.1-.19.14-.28h34.94c.04.09.09.19.14.28h0s-35.23,0-35.23,0Zm17.12.38v1.42h-.85v-1.42h.85Zm-1.84,0v1.42h-.85v-1.42h.85Zm-1.84,0v1.42h-.85v-1.42h.85Zm-1.84,0v1.42h-.85v-1.42h.85Zm-1.84,0v1.42h-.85v-1.42h.85Zm-1.84,0v1.42h-.85v-1.42h.85Zm-1.84,0v1.42h-.85v-1.42h.85Zm-1.84,0v1.42h-.85v-1.42h.85Zm-1.84,0v1.42h-.85v-1.42h.85Zm-2.69.2c.04-.07.07-.13.1-.2h.75v1.42h-.85v-1.22Zm24.25-30.38l-1.66-1.8.85-1.7h0s0,0,0,0c.26,1.22.53,2.39.81,3.5Zm6.39,18.89h0s-2.75-1.2-2.75-1.2l1.66-1.57h0c.34.89.7,1.81,1.09,2.77Zm1.63,3.9h0s-3.25-1.3-3.25-1.3l2.06-1.51h0c.38.92.77,1.85,1.19,2.81Zm-25.22-1.57l-2.18-1.6h0c.03-.08.06-.16.1-.23h0s2.97-1.29,2.97-1.29h0s-.89,3.12-.89,3.12h0Zm-.53-5.81l2.53-1.24h0s-.91,3.22-.91,3.22l-1.74-1.65h0c.04-.11.08-.22.12-.33h0Zm2.78-2.13l-1.44-1.5h0c.05-.16.11-.3.16-.45h0s1.02-.66,1.02-.66l1.01-.02-.75,2.63h0Zm3.19-17.38c.02-.11.05-.22.07-.34l2.81.19s-.01.09-.02.14l-1.86,2.02-.99-2h0s0,0,0,0Zm1.01-5.61l1.27-1.28,1.15,2.22h0s-2.49-.5-2.49-.5c.02-.15.05-.29.07-.44h0Zm1.11-8.24l2.12.02s0,.1,0,.15l-1.39,1.59-.77-1.21h0c.02-.18.04-.36.06-.54Zm.51-4.86l1.07-1.7.84,1.25h0c0,.11-.01.22-.02.33l-1.9.21s0-.06,0-.08h0Zm.4-4.44l1.15-1.39.52.85h0c0,.19,0,.37-.02.56l-1.67.15c0-.06,0-.11.01-.17h0Zm.47-6.48c0-.08.01-.17.02-.25l1.28.49c0,.07,0,.14,0,.21h0s-.68.57-.68.57l-.61-1.01h0s0,0,0,0Zm3.3-10.09c0,.05,0,.1,0,.15l-.61.13c0-.21.02-.4.02-.6l.18-.29.4.6h0s0,0,0,0Zm.27,5.74c0,.16.02.32.03.48l-1.05.25c0-.16,0-.32,0-.48h0s.51-.93.51-.93l.5.68h0Zm.19,3.35c0,.12.01.24.02.36l-1.25.48c0-.07,0-.14,0-.21h0s.7-1.28.7-1.28l.53.65h0Zm.21,3.15h0c0,.12.02.23.02.35l-1.43.56c0-.07,0-.15,0-.22h0s.75-1.24.75-1.24l.66.55h0Zm.33,4.34c0,.06,0,.11.01.17l-1.67-.15c0-.19-.01-.38-.02-.56l.52-.84,1.15,1.38h0Zm.4,4.45s0,.05,0,.08l-1.9-.21c0-.11-.01-.22-.02-.33h0s.83-1.25.83-1.25l1.07,1.7s0,0,0,0Zm.45,4.32c0,.05.01.1.02.16l-2.1.02c0-.06,0-.13-.01-.19h0s1.03-1.48,1.03-1.48l1.06,1.49h0Zm.12,1.08h0s-.77,1.21-.77,1.21l-1.39-1.59h0c0-.05,0-.1,0-.15l2.12-.02c.02.18.04.36.06.54Zm.38,3.11c.01.08.02.17.03.25l-2.27.36s0-.08,0-.12h0s.48-.75.48-.75l.66-1.03.9,1.03.21.24h0Zm6.14,25.62c.05.15.11.3.16.46h0s-1.45,1.5-1.45,1.5h0s-.75-2.63-.75-2.63l1.01.02,1.02.65h0Zm1.5,4.09c.04.11.08.22.12.33h0s-1.73,1.65-1.73,1.65h0s-.91-3.22-.91-3.22l2.52,1.24h0Zm1.56,3.97c.03.08.06.16.1.23h0s-2.18,1.6-2.18,1.6l-.89-3.12h0s2.97,1.29,2.97,1.29h0Zm-25.2,4.38v1.32h-1.23v-1.32h1.23Zm7.72-32.61s0-.04,0-.06l2.51.5c0,.09-.02.17-.03.26l-1.35,1.14-1.14-1.84h0Zm.8-5.46h0s.21-.25.21-.25l.9-1.03.66,1.03.48.74s0,.08,0,.12l-2.27-.36c.01-.08.02-.17.03-.25h0Zm3.05-14.19l-.28-.46.3-.36c0,.28-.01.55-.02.83h0Zm-1.03-8.45c0-.1.01-.19.02-.29l1.07.26s0,.09,0,.14h0s-.62.76-.62.76l-.47-.86h0Zm.18-3.54l.85.3s0,.07,0,.11l-.43.59-.44-.78c0-.07,0-.14.01-.21Zm.15-3.35h0s0,0,0,0l.4-.6.18.3c0,.19.02.39.02.59l-.61-.13c0-.05,0-.1,0-.15Zm2.14,1.33l.27.38-.29.44h0c0-.27.02-.55.03-.82h0Zm-.08,3.06l.24.33-.26.46h0c0-.27,0-.53.01-.8h0Zm-.05,3.2l.43.53-.44.81h0c0-.45,0-.9,0-1.33h0Zm.01,4.62c0-.4,0-.79-.01-1.18h0s.48.4.48.4l-.47.77h0Zm.85,6.75l-.64.96h0c-.02-.4-.03-.8-.05-1.2h.54l.15.23Zm-.39,5.77c-.05-.88-.1-1.74-.15-2.59l.99,1.39-.84,1.2h0Zm3.44,10.26h0s-1.14,1.85-1.14,1.85l-1.35-1.13h0c0-.09-.02-.18-.03-.26l2.51-.5s0,.04,0,.05Zm-10.25,15.99h.47v.35h-.47v-.35Zm11.51,0v.35h-.47v-.35h.47Zm-3.68,0v.35h-.47v-.35h.47Zm-1.23,0v.35h-.47v-.35h.47Zm-2.45,0v.35h-.47v-.35h.47Zm.75,0h.47v.35h-.47v-.35Zm3.68,0h.47v.35h-.47v-.35Zm-6.13,0h.47v.35h-.47v-.35Zm-1.15,15.86c.19-1.27.77-5.52,1.07-9.56h6.68c.29,4.04.88,8.29,1.07,9.56h-8.81Zm2.15-12.93c.15.13.28.26.4.37-.44.38-.89.77-1.28,1.11h-.1c.02-.51.04-1,.05-1.48h.92Zm-.92-.5v-.3h.06c.11.1.22.2.32.3h-.38Zm4.14.5c.1.09.2.18.31.28-.78.68-1.15,1.01-1.33,1.19-.21-.18-.68-.6-1.22-1.1.16-.14.3-.27.43-.38h1.81Zm-1.25-.5c.15-.13.25-.23.32-.3h.03c.08.07.2.17.34.3h-.69Zm3.46.5c0,.48.02.97.05,1.48h-.09c-.51-.47-.94-.86-1.29-1.19.11-.09.22-.19.33-.29h1Zm-.42-.5c.12-.1.24-.2.35-.3h.06c0,.1,0,.2,0,.3h-.41Zm-1.2,1.04c.34.31.69.64,1.02.94h-2.08c.27-.24.65-.57,1.07-.94Zm.63-1.04h-1.2c-.13-.11-.24-.22-.33-.3h1.88c-.12.1-.24.2-.35.3Zm-3.75,1.13c.42.39.72.66.94.85h-1.92c.37-.32.7-.61.98-.85Zm-.12-.63h.27s-.09.08-.14.12c-.04-.04-.09-.08-.13-.12Zm.84-.5h-1.39c-.11-.1-.22-.2-.33-.3h2.05c-.1.09-.21.19-.34.3Zm4.1,2.45c.01.25.03.5.04.75h-6.59c.02-.26.03-.51.05-.75h6.49Zm-7.81,11.73h.22v1.32h-.22v-1.32Zm.97,0h1.23v1.32h-1.23v-1.32Zm1.98,0h1.23v1.32h-1.23v-1.32Zm1.98,0h1.23v1.32h-1.23v-1.32Zm1.98,0h1.23v1.32h-1.23v-1.32Zm1.98,0h.22v1.32h-.22v-1.32Zm.24-16.26h-.47v-.35h.47v.35Zm-9.06-.35h.47v.35h-.47v-.35Zm16.75,17.94v-1.32h1.23v1.32h-1.23Zm-.75-.78l-.16-.54h.16v.54Zm-5.05-16.81v-.35h.47v.35h-.47Zm-8.57-6.8l2.11-2.5,2.1,2.5.02.02s0,.03,0,.04h-4.26s0-.03,0-.04v-.02Zm2.06-18.64h.1c0,.09.02.19.02.29v.02s-.07.1-.07.1l-.06-.1h0c0-.11.02-.21.02-.3Zm-.09,1.36l.14-.23.13.22.02.03c.03.39.06.79.09,1.19l-.02.02-.23.31-.23-.32v-.02c.02-.4.05-.8.08-1.19v-.02Zm.44,1.96l-.02-.02-.05-.07.04-.06v-.02c.02.06.02.11.03.17Zm-.58-.15l.04.06-.05.07-.02.02c0-.06,0-.11.01-.17v.02Zm-.07.85l.35-.48.35.47h0c.03.38.05.73.09,1.1h0s-.39.77-.39.77l-.05.1-.05-.1-.39-.77h0c.03-.37.06-.72.09-1.09h0Zm1.12,4.32c.04.37.07.73.11,1.11l-.84-.07s0-.01-.01,0h-.03s-.03,0-.03,0c0,0,0,0-.01,0l-.84.07c.04-.37.07-.73.11-1.1l.02-.04.75-1.48.75,1.47.02.04Zm-2.08,4.7l.02-.02h2.58l.02.02.03.04c.03.21.06.42.08.63l-1.37-.12s0-.01-.01,0h-.03s-.03,0-.03,0c0,0-.01,0-.01,0l-1.37.12c.03-.21.06-.41.08-.62l.03-.04Zm.79-7.23l.04.07.26.52-.44.86-.02.04c.05-.5.11-1,.15-1.5h0Zm2.5,12.11l-1.74-2.06.22-.26h1.21c.11.77.2,1.56.32,2.32h0Zm-1.34-10.67l-.43-.85.26-.52.03-.06h0c.05.48.1.98.15,1.47l-.02-.04Zm-.66-7.63c0-.08.01-.17.02-.25,0,.08.01.17.02.25h-.04Zm-1.66,15.98h1.21l.22.26-1.75,2.07h0c.12-.76.21-1.55.32-2.32Zm4.32-1.12l1.59,1.73-1.03,2.07c-.2-1.28-.39-2.55-.57-3.8Zm-.5-3.87c-.01-.09-.02-.17-.03-.26l1.09.91-.81,1.32c-.08-.66-.17-1.32-.25-1.97Zm-.24-2.12c-.11-1.04-.21-2.07-.3-3.1l.48.49.77.77-.94,1.83h0Zm-.68-7.71l1.14,1.29-.17.27-.67,1.05-.08.12c-.08-.92-.15-1.84-.21-2.74Zm-.54-11.33c0-.28-.01-.55-.02-.82h0s.3.36.3.36l-.28.45h0Zm-1.57-17.11c0,.1,0,.2.01.3l-.11.16-.28-.46h0s.37,0,.37,0Zm.13,3.09c0,.27.02.55.03.83h0s-.29-.44-.29-.44l.27-.39h0Zm.08,3.06h0c0,.26.01.52.01.8h0s-.26-.47-.26-.47l.24-.33Zm.04,3.2h0c0,.44,0,.89,0,1.34l-.44-.81.43-.53Zm0,4.62l-.47-.77.48-.4h0c0,.39,0,.77-.01,1.17Zm-.71,6.52h.55c-.01.4-.03.8-.05,1.2l-.64-.97.15-.23Zm.43,2.71l-1.25,1.76-.72-1.03h0c.02-.23.04-.45.07-.68l1.92-.21c0,.05,0,.11,0,.16Zm-.04.71c-.04.85-.09,1.71-.15,2.58l-.84-1.2.98-1.38Zm-.49,7.27l-.08-.13-.67-1.05-.17-.27,1.14-1.3c-.06.91-.14,1.82-.21,2.75Zm-.47,4.97l-.94-1.83.76-.77.48-.49c-.09,1.02-.19,2.05-.3,3.09Zm-.21,1.86c0,.09-.02.17-.03.26-.08.64-.16,1.31-.25,1.97l-.81-1.31,1.09-.91Zm-1.09,7.92l-1.03-2.07,1.59-1.72c-.17,1.25-.36,2.51-.56,3.79Zm-3.26,7.17h-.47v-.35h.47v.35Zm-4.89,16.26l-.16.54v-.54h.16Zm26.73,1.32h-1.13v-1.32h.55c.19.44.38.88.58,1.32Zm-4.02-2.08l-.33-1.15,2.87,1.15h-2.55Zm-3.2-15.51h-.47v-.35h.47v.35Zm-4.75-6.74l1.09-2.2,2.03,2.2h-3.12Zm1-2.86l-1.86-2.02s-.01-.09-.02-.14l2.81-.19c.02.11.05.22.07.34h0s-.99,2.01-.99,2.01Zm.85-2.72l-2.78.19s-.01-.09-.02-.14l1.03-1.66,1.74,1.46h0c.01.05.02.11.03.16Zm-.14-.75l-1.42-1.2.94-1.52h0c.15.92.32,1.82.49,2.71h0Zm-.65-3.71l-2.49.5s0,0,0,0l1.15-2.22,1.27,1.28h0c.02.15.05.3.07.44Zm-1.16-2.08l.37-.7.29-.56h0c.11.76.22,1.51.33,2.26l-.99-1Zm.57-1.91h0s-.62,1.21-.62,1.21l-.22.42-.42-.42-1.07-1.08h0c0-.06-.01-.12-.02-.17l2.29-.37c.02.14.04.27.06.41h0Zm-1.71-7.38l-1.25-1.76c0-.05,0-.11,0-.16l1.92.21c.02.22.04.45.07.67h0l-.72,1.04Zm-.98-8.65l-.52-.62h0c0-.13,0-.25,0-.37l1.45-.57s0,.04,0,.06h0s-.93,1.51-.93,1.51Zm.12-3.43l-.68-.57h0c0-.07,0-.14,0-.21l1.27-.49c0,.08.01.17.02.25h0s-.61,1.01-.61,1.01Zm-.05-3.35l-.62-.76h0c0-.05,0-.1,0-.14l1.07-.26c0,.1.01.2.02.29h0s-.46.86-.46.86Zm-.14-3.41l-.43-.59s0-.07,0-.1l.85-.3c0,.07,0,.14.01.21h0s-.43.78-.43.78Zm.4-1.39l-.82.29c0-.13,0-.26,0-.39h0s.55-.81.55-.81l.24.34h0s0,0,0,0c0,.19.02.38.03.57Zm-.09-1.86l-.18.28-.48-.68s0-.01,0-.02l.64-.14c0,.18.02.37.02.56h0Zm-.46-2.4l-.11-.16c0-.11.01-.2.02-.3h.37,0s-.28.47-.28.47Zm-2.32.11h0s.14.24.14.24l-.16.24h0c0-.16.01-.32.02-.48Zm-.07,1.73l.64.14s0,.01,0,.02l-.47.68-.19-.28h0s0,0,0,0c0-.19.02-.38.02-.55Zm-.08,1.85l.24-.34.54.81c0,.13,0,.26.01.4l-.82-.29c0-.19.02-.38.03-.57h0Zm-.09,1.9h0s.22.4.22.4l-.26.36h0c.01-.26.03-.51.04-.76Zm.42.77l.52.93h0c0,.16,0,.32,0,.48l-1.05-.25c0-.16.02-.32.03-.48l.5-.68Zm-.6,2.56l.25.46-.29.36h0c.02-.27.03-.55.05-.82h0Zm.44.82l.69,1.28c0,.07,0,.14,0,.21l-1.25-.48c0-.12.02-.24.02-.36l.53-.65Zm.67,4.49c0,.07,0,.14,0,.22l-1.43-.56c0-.12.02-.23.02-.35l.66-.55.75,1.24Zm-1.46.05l1.45.57c0,.12,0,.24,0,.37l-.52.63-.93-1.51s0-.04,0-.06Zm-.84,9.76l.55.79-.74,1.05h0c.07-.61.13-1.22.19-1.83h0Zm-.28,2.61h0s1.05-1.49,1.05-1.49l1.03,1.48c0,.06,0,.12-.01.19l-2.1-.02c0-.05.01-.1.02-.16h0Zm-.19,1.67l.59.92-.27.3-.55.63h0s0,0,0,0c.08-.61.16-1.23.23-1.85h0Zm-.4,3.14l2.29.37c0,.06-.01.11-.02.17l-1.07,1.08-.42.42-.22-.42-.63-1.2h0c.02-.14.04-.28.06-.42Zm-.81,5.4h0s.94,1.52.94,1.52l-1.42,1.2h0c.17-.89.33-1.79.49-2.71Zm-.6,3.3l1.73-1.46,1.03,1.66s-.01.09-.02.14l-2.78-.19c.01-.05.02-.1.03-.16h0Zm1.82,5.74h-3.12l2.03-2.2,1.09,2.2Zm-4.74,6.38h.47v.35h-.47v-.35Zm-3.2,15.86h-2.54l2.87-1.15-.33,1.15Zm-2.89.75v1.32h-1.13c.2-.45.39-.88.58-1.32h.55Zm25.42-8.87l-2.45-1.21,1.46-1.51c.31.86.64,1.77,1,2.72h0Zm-1.5-4.15l-.09-.06h.08s.02.05.02.07h0Zm-3.33-10.74h0s0,0,0,0h0Zm-2.69-14.98s0,0,0,0l-.55-.63-.26-.3.59-.92h0c.07.62.15,1.23.23,1.85Zm-.51-4.29l-.75-1.05.55-.79h0c.06.61.13,1.22.19,1.84h0Zm-.44-4.39h0s-.75-1.21-.75-1.21l.57-.86c.06.69.12,1.38.19,2.07h0Zm-.37-4.26h0s-.89-1.07-.89-1.07l.72-1.17h0s0-.01,0-.01c.05.74.11,1.49.17,2.25Zm-.32-4.2l-.42-.36.36-.6h0c.02.32.04.64.07.96h0Zm-.21-3.27h0s-.3-.37-.3-.37l.25-.46h0c.02.27.03.55.05.83h0Zm-.19-3.39h0s-.26-.36-.26-.36l.22-.4h0s0,0,0,0c.01.25.03.51.04.77h0Zm-.26-5.78l-.16-.23.14-.23h0c0,.15.01.3.02.47h0Zm-3.32,11.48l.36.6-.42.36h0c.02-.32.04-.64.07-.96Zm-.2,2.92l.72,1.17-.89,1.07s0,0,0,0c.06-.76.12-1.5.17-2.24h0Zm-.35,4.43h0s.57.86.57.86l-.76,1.21h0c.06-.7.13-1.39.19-2.08h0Zm-1.45,13.11h0s.29.56.29.56l.36.7-.98.99h0c.11-.75.22-1.5.33-2.26h0Zm-1.56,9.11h0s.85,1.71.85,1.71l-1.66,1.8h0c.29-1.12.56-2.3.81-3.51Zm-4.05,14.19l-.1.07h0s.02-.04.02-.06h.08Zm-.6,1.49h0s1.46,1.51,1.46,1.51l-2.46,1.21h0c.36-.95.69-1.86,1-2.72Zm-1.47,3.95h0s1.66,1.58,1.66,1.58l-2.75,1.2h0c.38-.95.75-1.87,1.09-2.77Zm-1.53,3.86h0s2.06,1.51,2.06,1.51l-3.24,1.3h0c.41-.95.81-1.89,1.19-2.81Zm30.98,10.2c.03.07.06.13.1.2,0,0,0,0,0,0v1.21h-.85v-1.42h.75Zm-1.74,0v1.42h-.85v-1.42h.85Zm-1.84,0v1.42h-.85v-1.42h.85Zm-1.84,0v1.42h-.85v-1.42h.85Zm-1.84,0v1.42h-.85v-1.42h.85Zm-1.84,0v1.42h-.85v-1.42h.85Zm-1.84,0v1.42h-.85v-1.42h.85Zm-1.84,0v1.42h-.85v-1.42h.85Zm-1.84,0v1.42h-.85v-1.42h.85Zm-1.84,0v1.42h-.85v-1.42h.85Zm-20.06,1.79h18.67c-1.59,0-3.16.14-4.68.41h-14.21c.07-.14.14-.27.21-.41Zm-1.74,3.21h0s1.27,1.87,1.27,1.87l-.73,1.02-2.09,1.1-1.21.64h0c.96-1.51,1.88-3.06,2.76-4.63Zm-9.26,13.36h.01s.99,1.19.99,1.19l-.33.15-.74.33-1.73.76-.91.4h0c.92-.88,1.82-1.83,2.7-2.82Zm-3.57,3.83l2.87-1.27,1.76-.77.29-.13h.01s-1.5,2.22-1.5,2.22h-3.54l.1-.04Zm4.12.04l1.2-1.78.19.23.79.94h0s.47.57.47.57h.01s0,.03,0,.04h-2.67Zm4.39-.55c.11-.35.2-.7.32-1.04l2.19.29c-.08.28-.13.56-.19.84l-2.33-.09Zm4.74-2.61l.18.19.29.3.24.25.11.11.14.15.05.05.37.38-.15.06-1.12.42-.87.33c.21-.76.46-1.51.75-2.23Zm2.11,2.73h-2.02s.26-.11.26-.11l.82-.3.47-.17.33-.12.34.35c-.06.13-.13.25-.19.37Zm1.29-2.8c-.08.19-.16.38-.24.58-.03.08-.06.15-.09.23,0,.02-.02.04-.02.06l-.89.34-.04-.04-.35-.36-.23-.24-.64-.66-.15-.15-.42-.43s0,0,0-.01l.79-.13h0s.14-.03.14-.03l.94-.15.29-.05h.05s.52-.09.52-.09l.38.86.02.03.02.05c-.03.07-.06.13-.08.2Zm.52-1.09l-.08-.17.18-.03c-.04.07-.07.14-.1.2Zm.84-1.76s-.03.07-.04.1c-.09.21-.18.41-.27.62l-.56.09-.36.06-.26-.57-.51-1.15-.1-.22-.19-.43,1.86.03.57,1.18c-.04.1-.09.2-.13.3Zm.53-1.22l-.12-.25h.22c-.04.09-.07.17-.1.25Zm.52-1.21c-.03.07-.06.15-.09.22h-.3s-.61-.02-.61-.02l-.1-.21-.11-.22-.47-.98c.09-.1.18-.19.27-.29l1.68-.1.17.15.04.31c-.15.36-.31.74-.47,1.12Zm28.53.43c-.03-.08-.06-.15-.09-.22-.16-.39-.31-.77-.46-1.13l.06-.43v-.04s.04,0,.04,0l1.92.14h.08c.04.05.09.1.13.14l-.03.05-.53,1.05-.11.22-.11.21h-.61s-.29,0-.29,0Zm.41,1c-.03-.08-.07-.16-.1-.24h.22s-.12.24-.12.24Zm1.33,2.99c-.03-.07-.07-.14-.1-.21l.18.03-.08.17Zm.05-.94l-.57-.1c-.08-.21-.17-.41-.26-.62-.02-.04-.03-.07-.04-.11-.04-.1-.09-.2-.13-.3l.59-1.17h1.86s-.2.42-.2.42l-.1.22-.53,1.14-.26.57-.35-.06Zm.77,2.86c-.03-.08-.06-.15-.09-.23-.07-.19-.15-.39-.23-.58-.02-.07-.05-.13-.08-.2l.02-.05.02-.03.4-.85.52.09h.05s.29.06.29.06h0l.93.17.14.02h0l.8.14-.44.43-.15.15-.65.65-.24.24-.36.36s-.02.02-.04.03l-.88-.35s-.02-.04-.02-.06Zm.93,2.01c-.06-.12-.12-.24-.19-.37l.34-.34.33.13.47.18.81.32.27.1h-2.02Zm2.99-.41l-.99-.39-1.11-.43-.15-.06.37-.37.04-.04.15-.15.11-.11.25-.25.3-.3.26-.26h0s.03-.03.03-.03l.04-.04c.31.8.56,1.62.78,2.46l-.08-.03Zm1.65.13c-.07-.28-.12-.57-.19-.84l2.19-.29c.12.34.22.69.32,1.04l-2.33.09Zm4.04.44v-.02s.48-.56.48-.56h0s.79-.95.79-.95l.19-.22h0s1.2,1.77,1.2,1.77h-2.67s0-.01,0-.02Zm3.36.02l-1.51-2.22h.01s.28.13.28.13l1.78.78,2.87,1.27.1.04h-3.54Zm2.56-1.05l-.9-.4-1.72-.76-.74-.33-.33-.15.5-.59.49-.59v-.02c.89.99,1.79,1.95,2.72,2.82h-.01Z"/>
        <polygon class="cls-9" points="106.63 123.39 122.13 123.39 122.13 97.89 132.88 97.89 132.88 108.39 141.88 108.39 141.88 85.39 158.13 85.39 158.13 141.14 106.88 141.14 106.63 123.39"/>
        <rect class="cls-2" y="139.15" width="158.13" height="16.42"/>
        <rect class="cls-1" y="150.56" width="158.13" height="16.42"/>
        <path class="cls-5" d="m106.3,54.76c0,3.84-3.11,6.95-6.95,6.95s-6.95-3.11-6.95-6.95,3.11-6.95,6.95-6.95,6.95,3.11,6.95,6.95Z"/>
        <g>
          <g>
            <g>
              <g>
                <circle class="cls-8" cx="92.7" cy="162.81" r="2.48"/>
                <path class="cls-13" d="m95.52,159.79v-.48h.01l.02-.61h0v-.18s-2.02-.06-2.02-.06v.18h0v.42s-.02.34-.02.34h0v.37c-.07.03-.12.08-.15.13l-1.16,1.85c-.27.52-.31.94-.24,1.26.11.51.69.77,1.15.52l1.37-.75c.26-.14.45-.38.53-.66l.71-2.02c.05-.15-.04-.3-.19-.33Z"/>
              </g>
              <g>
                <path class="cls-8" d="m123.16,162.81c0,1.37,1.11,2.48,2.48,2.48s2.48-1.11,2.48-2.48-1.11-2.48-2.48-2.48-2.48,1.11-2.48,2.48Z"/>
                <path class="cls-13" d="m122.82,159.79v-.48h-.01l-.02-.61h0v-.18s2.02-.06,2.02-.06v.18h0v.42s.02.34.02.34h0v.37c.07.03.12.08.15.13l1.16,1.85c.27.52.31.94.24,1.26-.11.51-.69.77-1.15.52l-1.37-.75c-.26-.14-.45-.38-.53-.66l-.71-2.02c-.05-.15.04-.3.19-.33Z"/>
              </g>
            </g>
            <g>
              <g>
                <rect class="cls-8" x="114.88" y="80.2" width="1.5" height="21.29"/>
                <rect class="cls-8" x="114.58" y="100.77" width="2.09" height="1.42"/>
                <rect class="cls-8" x="114.58" y="79.49" width="2.09" height="1.42"/>
              </g>
              <g>
                <rect class="cls-8" x="101.96" y="80.2" width="1.5" height="21.29"/>
                <rect class="cls-8" x="101.67" y="100.77" width="2.09" height="1.42"/>
                <rect class="cls-8" x="101.67" y="79.49" width="2.09" height="1.42"/>
              </g>
            </g>
            <path class="cls-8" d="m107.06,101.99l.63-3.02v-.02h2.95v.02s.64,3.02.64,3.02h2.25l-1.63-3.5c-.16-.35-.6-.58-1.08-.58h-3.3c-.48,0-.92.23-1.08.58l-1.63,3.5h2.25Z"/>
            <path class="cls-13" d="m119.61,103.7h-20.89l1.13-1.54c.31-.42.78-.67,1.28-.67h16.08c.5,0,.97.25,1.28.67l1.13,1.54Z"/>
            <path class="cls-8" d="m114.08,79.14h-9.82l.53-.73c.14-.2.37-.31.6-.31h7.56c.23,0,.46.12.6.31l.53.73Z"/>
            <path class="cls-8" d="m92.16,102.94h34.02c1.11,0,2.01.9,2.01,2.01v51.87c0,1.11-.9,2-2,2h-34.02c-1.11,0-2.01-.9-2.01-2.01v-51.86c0-1.11.9-2.01,2.01-2.01Z"/>
            <path class="cls-13" d="m123.74,109.68v11.53c0,.12-.17.24-.45.32-.28.08-.66.13-1.08.13h-26.06c-.85,0-1.54-.2-1.54-.45v-11.53c0-.12.17-.24.45-.32.28-.08.66-.13,1.08-.13h26.06c.85,0,1.54.2,1.54.45Z"/>
            <path class="cls-14" d="m123.74,109.68v11.53c0,.12-.17.24-.45.32-.28.08-.66.13-1.08.13h-7.42c1-4.33,1.72-8.54,2.24-12.43h5.18c.85,0,1.54.2,1.54.45Z"/>
            <path class="cls-13" d="m123.74,126.19v26.73c0,.29-.17.54-.45.73-.28.19-.66.3-1.08.3h-26.06c-.85,0-1.54-.46-1.54-1.03v-26.73c0-.29.17-.54.45-.73.28-.19.66-.3,1.08-.3h26.06c.85,0,1.54.46,1.54,1.03Z"/>
            <path class="cls-14" d="m123.74,126.19v26.73c0,.29-.17.54-.45.73-.28.19-.66.3-1.08.3h-22.39c7.04-7.98,11.4-18.52,14.11-28.79h8.28c.85,0,1.54.46,1.54,1.03Z"/>
            <g>
              <path class="cls-15" d="m98.34,126.25c-.27,0-.48.22-.48.48v25.65c0,.27.22.48.48.48s.48-.22.48-.48v-25.65c0-.27-.22-.48-.48-.48Z"/>
              <path class="cls-19" d="m102.67,126.25c-.27,0-.48.22-.48.48v25.65c0,.27.22.48.48.48s.48-.22.48-.48v-25.65c0-.27-.22-.48-.48-.48Z"/>
              <path class="cls-20" d="m107,126.25c-.27,0-.48.22-.48.48v25.65c0,.27.22.48.48.48s.48-.22.48-.48v-25.65c0-.27-.22-.48-.48-.48Z"/>
              <path class="cls-11" d="m111.34,126.25c-.27,0-.48.22-.48.48v25.65c0,.27.22.48.48.48s.48-.22.48-.48v-25.65c0-.27-.22-.48-.48-.48Z"/>
              <path class="cls-10" d="m115.67,126.25c-.27,0-.48.22-.48.48v25.65c0,.27.22.48.48.48s.48-.22.48-.48v-25.65c0-.27-.22-.48-.48-.48Z"/>
              <path class="cls-22" d="m120,126.25c-.27,0-.48.22-.48.48v25.65c0,.27.22.48.48.48s.48-.22.48-.48v-25.65c0-.27-.22-.48-.48-.48Z"/>
            </g>
            <path class="cls-13" d="m121.7,104.59v-1.87h4.98c.96,0,1.74.78,1.74,1.74v4.98h-1.87c-.14-2.61-2.23-4.71-4.85-4.85Z"/>
            <path class="cls-13" d="m96.64,104.59v-1.87h-4.98c-.96,0-1.74.78-1.74,1.74v4.98h1.87c.14-2.61,2.23-4.71,4.85-4.85Z"/>
            <path class="cls-13" d="m121.7,157.16v1.87h4.98c.96,0,1.74-.78,1.74-1.74v-4.98h-1.87c-.14,2.61-2.23,4.71-4.85,4.85Z"/>
            <path class="cls-13" d="m96.64,157.16v1.87h-4.98c-.96,0-1.74-.78-1.74-1.74v-4.98h1.87c.14,2.61,2.23,4.71,4.85,4.85Z"/>
            <rect class="cls-8" x="100.87" y="78.81" width="16.6" height="1.28" rx=".53" ry=".53"/>
          </g>
          <g>
            <polygon class="cls-8" points="39.63 194.28 39.06 202.18 48.12 202.84 48.87 194.71 39.63 194.28"/>
            <path class="cls-3" d="m37.96,200.99s.41-2.18,1.67-3.07,5.43-1.37,5.84,4.07l-1.02.52-6.49-1.51Z"/>
            <path class="cls-21" d="m44.19,200.12c-.43-.23-.92-.35-1.41-.43-1.54-.24-3.77-.23-5.1.7-1.12.78-1.61,2.14-2.26,3.28-.72,1.28-1.51,2.5-2.44,3.61-1.07,1.25-2.28,2.59-2.38,4.29-.03.45.04.93.33,1.26.27.31.68.42,1.06.51,4.63,1.08,9.5.95,14.08-.36,1.04-.3,2.12-.7,2.8-1.6.7-.93.83-2.2.93-3.4.15-1.82.27-3.41-.33-5.16-.09-.26-.2-.54-.41-.7-.29-.22-.67-.18-1.03-.19-.92-.02-2.1-.39-2.8-.99-.23-.19-.43-.42-.67-.6-.11-.09-.24-.16-.36-.23Z"/>
            <path class="cls-3" d="m32.82,210.82c.92-.06,1.86.09,2.72.44,1.44.58,2.66,1.68,4.13,2.16,2.47.8,5.08-.32,7.45-1.43.81-.38,1.69-.83,2.07-1.69.61-1.38,1.08.47,1.09,1.2,0,.31,0,.64-.13.92-.05.11-.13.2-.2.3-1.92,2.49-5.26,3.84-8.11,4.51-.97.23-1.91.36-2.9.39-2.61.08-5.29-.39-7.58-1.81-.71-.44-1.42-1.04-1.61-1.9-.18-.84.21-1.73.83-2.27.62-.54,1.44-.76,2.23-.81Z"/>
          </g>
          <g>
            <polygon class="cls-8" points="86.8 194.28 87.37 202.18 78.31 202.84 77.56 194.71 86.8 194.28"/>
            <path class="cls-3" d="m88.48,200.99s-.41-2.18-1.67-3.07c-1.26-.9-5.43-1.37-5.84,4.07l1.02.52,6.49-1.51Z"/>
            <path class="cls-21" d="m82.24,200.12c.43-.23.92-.35,1.41-.43,1.54-.24,3.77-.23,5.1.7,1.12.78,1.61,2.14,2.26,3.28.72,1.28,1.51,2.5,2.44,3.61,1.07,1.25,2.28,2.59,2.38,4.29.03.45-.04.93-.33,1.26-.27.31-.68.42-1.06.51-4.63,1.08-9.5.95-14.08-.36-1.04-.3-2.12-.7-2.8-1.6-.7-.93-.83-2.2-.93-3.4-.15-1.82-.27-3.41.33-5.16.09-.26.2-.54.41-.7.29-.22.67-.18,1.03-.19.92-.02,2.1-.39,2.8-.99.23-.19.43-.42.67-.6.11-.09.24-.16.36-.23Z"/>
            <path class="cls-3" d="m93.62,210.82c-.92-.06-1.86.09-2.72.44-1.43.58-2.66,1.68-4.13,2.16-2.47.8-5.08-.32-7.45-1.43-.81-.38-1.69-.83-2.07-1.69-.61-1.38-1.08.47-1.09,1.2,0,.31,0,.64.13.92.05.11.13.2.2.3,1.92,2.49,5.26,3.84,8.11,4.51.97.23,1.91.36,2.9.39,2.61.08,5.29-.39,7.58-1.81.71-.44,1.42-1.04,1.61-1.9.18-.84-.21-1.73-.83-2.27-.62-.54-1.44-.76-2.23-.81Z"/>
          </g>
          <g>
            <path class="cls-23" d="m55.73,93.67c.17.14.43.12.59.27.29.28-.03.88.29,1.12.18.14.44.06.65.13.11.04.21.11.31.18.5.33,1.17.39,1.72.15.1-.28-.07-.59-.28-.8s-.47-.38-.64-.63c-.54-.83.26-2.02-.19-2.9-.08-.17-.21-.31-.29-.48-.08-.17-.12-.38-.02-.54-.63-.12-1.27-.18-1.91-.2-.07,0-.14,0-.19.03-.06.03-.09.09-.13.15-.25.46-.46,1.01-.25,1.49.1.23.29.41.33.66.04.23-.06.47-.12.7s-.06.51.12.67Z"/>
            <path class="cls-23" d="m71.35,93.67c-.17.14-.43.12-.59.27-.29.28.03.88-.29,1.12-.18.14-.44.06-.65.13-.11.04-.21.11-.31.18-.5.33-1.17.39-1.72.15-.1-.28.07-.59.28-.8s.47-.38.64-.63c.54-.83-.26-2.02.19-2.9.08-.17.21-.31.29-.48.08-.17.12-.38.02-.54.63-.12,1.27-.18,1.91-.2.07,0,.14,0,.19.03.06.03.09.09.12.15.25.46.46,1.01.25,1.49-.1.23-.29.41-.33.66-.04.23.06.47.12.7.06.23.06.51-.12.67Z"/>
          </g>
          <path class="cls-7" d="m41.23,109.35c-.48.32-.93.7-1.35,1.09-5.43,5.02-6.91,12.89-7.89,19.92-.25,1.82-.96,5.44.4,7,1.47,1.68,4.37.66,5.74-.56,3.53-3.14,4.47-7.45,6.22-11.58,1.51-3.59,2.66-7.34,3.29-11.19.16-1,.29-2.01.39-3.02.11-1.18.19-1.12-.77-1.61-1.22-.63-2.68-1.25-4.07-.93-.71.16-1.36.48-1.96.89Z"/>
          <path class="cls-21" d="m30.96,126.64l12.53,4.7,9.74-28.44s-11.75,1.68-18.96,13.86l-3.31,9.88Z"/>
          <path class="cls-7" d="m85.18,109.35c.48.32.93.7,1.35,1.09,5.43,5.02,6.91,12.89,7.89,19.92.25,1.82.96,5.44-.4,7-1.47,1.68-4.37.66-5.74-.56-3.53-3.14-4.47-7.45-6.22-11.58-1.51-3.59-2.66-7.34-3.29-11.19-.16-1-.29-2.01-.39-3.02-.11-1.18-.19-1.12.77-1.61,1.22-.63,2.68-1.25,4.07-.93.71.16,1.36.48,1.96.89Z"/>
          <path class="cls-21" d="m95.46,126.64l-12.53,4.7-9.74-28.44s11.75,1.68,18.96,13.86l3.31,9.88Z"/>
          <path class="cls-8" d="m83.43,144.28s-11.93-.9-20.29,1.58c-8.36-2.49-20.29-1.58-20.29-1.58l-3.02,5.49c1.11,24.22,16.22,14.26,21.33,13.44.63-.1,1.3-.37,1.99-.76.68.39,1.36.66,1.99.76,5.1.83,20.22,10.78,21.33-13.44l-3.02-5.49Z"/>
          <path class="cls-3" d="m80.51,148.65h-34.76s1.55-11.6.84-18.76c-.7-7.15-4.36-21.23-2.67-23.29.56-.69,4.06-2.22,7.66-3.58,1.66-.62,3.34-1.21,4.77-1.66,1.69-.54,3.02-.88,3.57-.88h6.42c.54,0,1.88.35,3.57.88,4.54,1.43,11.61,4.23,12.43,5.23,1.69,2.06-1.97,16.14-2.67,23.29-.7,7.15.84,18.76.84,18.76Z"/>
          <path class="cls-13" d="m37.48,196.09s-3.37-39.56,1.4-48.17,16.01-3.93,14.61,12.23c-1.4,16.16-3.09,35.94-3.09,35.94h-12.92Z"/>
          <polygon class="cls-7" points="67.42 101.36 67.35 100.3 67.09 96.44 59.65 96.44 59.54 98 59.31 101.36 67.42 101.36"/>
          <path class="cls-4" d="m67.35,100.3c-2.83.76-5.99-1-7.81-2.3l.11-1.56h7.44l.26,3.86Z"/>
          <path class="cls-7" d="m69.58,92.07c0,1.07-.23,2.08-.63,2.97-.99,2.2-3.04,3.71-5.42,3.71-3.34,0-6.05-2.99-6.05-6.68,0-.22,0-.44.03-.66.3-3.38,2.88-6.02,6.02-6.02,3.34,0,6.05,2.99,6.05,6.68Z"/>
          <path class="cls-4" d="m69.58,92.07c0,1.07-.23,2.08-.63,2.97-4.35-.36-8.84-2.31-11.43-3.63.3-3.38,2.88-6.02,6.02-6.02,3.34,0,6.05,2.99,6.05,6.68Z"/>
          <path class="cls-7" d="m69.91,101.37c-.7,3.1-3.47,5.41-6.78,5.41s-6.08-2.31-6.78-5.41c1.69-.54,3.02-.88,3.57-.88h6.42c.54,0,1.88.35,3.57.88Z"/>
          <path class="cls-13" d="m88.79,196.09s3.37-39.56-1.4-48.17c-4.78-8.61-16.01-3.93-14.61,12.23,1.4,16.16,3.09,35.94,3.09,35.94h12.92Z"/>
          <path class="cls-7" d="m45.18,134.22c-1.2-1.15-3.02-2.02-4.76-2.82-.51-.24-1.04-.48-1.57-.61-.87-.21-1.63-.11-2.29.03-3.3.72-5.66,2.64-4.8,5.4.22.69.67,1.45,1.52,2.08.69.51,1.56.87,2.4,1.23,2.94,1.23,5.87,2.45,8.81,3.68.31.13.66.27.94.25.19-.01.31-.1.42-.19,1.59-1.34,1.58-3.48,1.13-5.61-.23-1.11-.62-2.32-1.8-3.45Z"/>
          <path class="cls-7" d="m81.23,134.22c1.2-1.15,3.02-2.02,4.76-2.82.51-.24,1.04-.48,1.57-.61.87-.21,1.63-.11,2.29.03,3.3.72,5.66,2.64,4.8,5.4-.22.69-.67,1.45-1.52,2.08-.69.51-1.56.87-2.4,1.23-2.94,1.23-5.87,2.45-8.81,3.68-.31.13-.66.27-.94.25-.19-.01-.31-.1-.42-.19-1.59-1.34-1.58-3.48-1.13-5.61.23-1.11.62-2.32,1.8-3.45Z"/>
          <path class="cls-12" d="m85.9,115.18v26.46c0,.41-.33.74-.74.74h-44.06c-.41,0-.74-.33-.74-.74v-26.46c0-.41.33-.74.74-.74h44.06c.41,0,.74.33.74.74Z"/>
          <path class="cls-16" d="m85.9,141.3v.35c0,.41-.33.74-.74.74h-44.06c-.41,0-.74-.33-.74-.74v-.35h45.54Z"/>
          <path class="cls-16" d="m85.9,115.18v26.46c0,.41-.33.74-.74.74h-33.28c17.91-8.74,21.98-21.73,22.88-27.94h10.4c.41,0,.74.33.74.74Z"/>
          <rect class="cls-12" x="39.64" y="141.95" width="46.98" height="2.17" rx=".68" ry=".68"/>
          <path class="cls-8" d="m55.44,87.64s0,.03,0,.04v2.98h16.21v-2.99s0-.04-.01-.06c-.01-.1-.03-.2-.04-.3-.08-.62-.1-1.28,0-1.92.36-2.53-3.75-6.28-5.39-6.4-1.16-.09-4.15-.09-5.31,0-1.63.12-5.74,3.87-5.39,6.4.09.64.07,1.3,0,1.92-.01.11-.03.22-.05.33Z"/>
          <path class="cls-13" d="m72.25,87.45v3.06c0,.35-.27.64-.6.64h-16.23c-.33,0-.6-.29-.6-.64v-3.06c0-.35.27-.64.6-.64h16.23c.33,0,.6.29.6.64Z"/>
          <polygon class="cls-6" points="63.13 125.4 64.11 127.38 66.3 127.7 64.72 129.24 65.09 131.42 63.13 130.39 61.18 131.42 61.55 129.24 59.97 127.7 62.15 127.38 63.13 125.4"/>
        </g>
      </g>
    </g>
  </g>
</svg>